<svg xmlns="http://www.w3.org/2000/svg" xmlns:xlink="http://www.w3.org/1999/xlink" width="500" zoomAndPan="magnify" viewBox="0 0 375 374.999991" height="500" preserveAspectRatio="xMidYMid meet" version="1.0"><defs><g/><clipPath id="be6343c794"><path d="M 65.800781 181.054688 L 75.410156 181.054688 L 75.410156 183.703125 L 65.800781 183.703125 Z M 65.800781 181.054688 " clip-rule="nonzero"/></clipPath><clipPath id="f95b7e818f"><path d="M 73.042969 181.054688 C 72.570312 181.054688 72.09375 181.066406 71.621094 181.066406 L 67.140625 181.078125 C 66.378906 181.09375 65.808594 181.695312 65.800781 182.378906 L 65.800781 182.394531 C 65.800781 182.414062 65.800781 182.433594 65.804688 182.453125 C 65.84375 183.207031 66.34375 183.675781 67.167969 183.6875 L 70.546875 183.691406 C 71.210938 183.691406 71.875 183.703125 72.535156 183.703125 C 73.066406 183.703125 73.597656 183.695312 74.128906 183.667969 C 74.484375 183.648438 74.933594 183.410156 75.144531 183.128906 C 75.78125 182.265625 75.164062 181.140625 74.035156 181.078125 C 73.703125 181.0625 73.375 181.054688 73.042969 181.054688 Z M 73.042969 181.054688 " clip-rule="nonzero"/></clipPath><clipPath id="60d1b638f3"><path d="M 87.179688 214.324219 L 106.496094 214.324219 L 106.496094 217.515625 L 87.179688 217.515625 Z M 87.179688 214.324219 " clip-rule="nonzero"/></clipPath><clipPath id="2d6581edfa"><path d="M 96.894531 214.324219 L 104.753906 214.328125 C 105.789062 214.328125 106.449219 214.921875 106.492188 215.867188 C 106.527344 216.707031 105.765625 217.453125 104.785156 217.5 L 103.128906 217.511719 C 98.554688 217.507812 93.980469 217.507812 89.40625 217.5 C 89.066406 217.5 88.714844 217.480469 88.386719 217.398438 C 87.621094 217.207031 87.121094 216.492188 87.199219 215.761719 C 87.289062 214.90625 87.878906 214.335938 88.757812 214.335938 L 96.894531 214.328125 Z M 96.894531 214.324219 " clip-rule="nonzero"/></clipPath><clipPath id="4feea6a5aa"><path d="M 91.410156 219.863281 L 102.257812 219.863281 L 102.257812 223.027344 L 91.410156 223.027344 Z M 91.410156 219.863281 " clip-rule="nonzero"/></clipPath><clipPath id="3e8c7a0943"><path d="M 96.914062 219.867188 L 100.636719 219.867188 C 101.621094 219.878906 102.25 220.496094 102.253906 221.433594 C 102.253906 222.398438 101.679688 223.011719 100.664062 223.023438 L 93.082031 223.023438 C 92.007812 223.011719 91.410156 222.390625 91.421875 221.417969 C 91.4375 220.429688 92.027344 219.878906 93.121094 219.867188 L 96.914062 219.867188 " clip-rule="nonzero"/></clipPath><clipPath id="a731df0722"><path d="M 94.09375 167.546875 L 117.542969 167.546875 L 117.542969 208.792969 L 94.09375 208.792969 Z M 94.09375 167.546875 " clip-rule="nonzero"/></clipPath><clipPath id="f2d9cebc4a"><path d="M 108.023438 189.113281 C 108.015625 182.460938 103.730469 177.683594 98.136719 177.027344 C 96.578125 176.847656 95.515625 175.804688 95.484375 174.429688 C 95.453125 172.953125 96.359375 171.878906 97.988281 171.660156 C 99.554688 171.449219 100.617188 170.671875 101.25 169.25 C 101.378906 168.957031 101.535156 168.671875 101.71875 168.410156 C 102.296875 167.582031 103.066406 167.359375 103.992188 167.734375 C 104.695312 168.019531 105.402344 168.292969 106.082031 168.621094 C 107.113281 169.113281 107.335938 169.757812 107.097656 170.875 C 106.886719 171.84375 106.796875 172.84375 106.65625 173.828125 L 106.65625 173.972656 C 107.679688 175.90625 109.003906 177.476562 111.074219 178.148438 C 111.667969 178.339844 112.421875 178.066406 113.09375 177.964844 C 113.476562 177.902344 113.839844 177.738281 114.21875 177.652344 C 115.15625 177.4375 115.773438 177.707031 116.203125 178.585938 C 116.582031 179.367188 116.917969 180.171875 117.226562 180.984375 C 117.535156 181.792969 117.320312 182.46875 116.601562 182.96875 C 116.171875 183.273438 115.699219 183.515625 115.242188 183.78125 C 114.054688 184.457031 113.347656 185.421875 113.378906 186.84375 C 113.398438 187.832031 113.359375 188.824219 113.421875 189.808594 C 113.488281 190.824219 114.085938 191.550781 114.917969 192.082031 L 116.410156 192.941406 C 117.382812 193.539062 117.628906 194.207031 117.238281 195.277344 L 116.402344 197.3125 C 115.914062 198.378906 115.183594 198.683594 114.039062 198.394531 C 113.308594 198.210938 112.574219 198.011719 111.832031 197.921875 C 110.988281 197.820312 110.25 198.160156 109.644531 198.742188 C 108.960938 199.394531 108.28125 200.050781 107.644531 200.746094 C 106.769531 201.695312 106.464844 202.789062 106.90625 204.046875 L 107.285156 205.371094 C 107.539062 206.402344 107.265625 207.066406 106.316406 207.535156 C 105.558594 207.910156 104.773438 208.246094 103.976562 208.527344 C 103.089844 208.839844 102.414062 208.582031 101.898438 207.785156 L 100.988281 206.246094 C 100.3125 205.210938 99.371094 204.671875 98.105469 204.664062 C 97.402344 204.664062 96.652344 204.699219 96.007812 204.472656 C 94.59375 203.972656 93.949219 202.6875 94.238281 201.285156 C 94.480469 200.113281 95.617188 199.199219 96.996094 199.246094 C 99.429688 199.324219 101.574219 198.554688 103.480469 197.128906 C 106.488281 194.871094 107.96875 191.808594 108.019531 189.117188 " clip-rule="nonzero"/></clipPath><clipPath id="8925cea25e"><path d="M 78.921875 166.03125 L 98.230469 166.03125 L 98.230469 211.6875 L 78.921875 211.6875 Z M 78.921875 166.03125 " clip-rule="nonzero"/></clipPath><clipPath id="7419dd5cf4"><path d="M 93.535156 211.472656 C 92.367188 211.472656 91.183594 211.570312 90.027344 211.449219 C 88.257812 211.269531 86.871094 209.960938 86.683594 208.199219 C 86.335938 204.863281 85.179688 201.78125 83.910156 198.730469 C 82.949219 196.425781 81.890625 194.160156 80.773438 191.925781 C 79.253906 188.878906 78.730469 185.691406 79.007812 182.3125 C 79.621094 174.695312 85.410156 168.171875 92.746094 166.492188 C 93.921875 166.222656 95.152344 166.148438 96.359375 166.042969 C 97.066406 165.984375 97.675781 166.257812 98.007812 166.945312 C 98.289062 167.535156 98.273438 168.171875 97.820312 168.609375 C 97.492188 168.925781 96.960938 169.164062 96.507812 169.1875 C 93.390625 169.34375 90.558594 170.257812 88.074219 172.167969 C 85.167969 174.40625 83.21875 177.289062 82.429688 180.886719 C 81.699219 184.203125 82.035156 187.414062 83.625 190.453125 C 85.921875 194.855469 87.847656 199.40625 89.195312 204.195312 C 89.476562 205.203125 89.625 206.257812 89.78125 207.296875 C 89.902344 208.113281 90.132812 208.382812 90.980469 208.386719 L 96.429688 208.398438 C 97.484375 208.402344 98.1875 209.050781 98.183594 209.992188 C 98.179688 210.871094 97.445312 211.542969 96.4375 211.5625 L 93.535156 211.566406 Z M 93.535156 211.472656 " clip-rule="nonzero"/></clipPath><clipPath id="7faf10dadb"><path d="M 88.714844 179.6875 L 105.40625 179.6875 L 105.40625 196.515625 L 88.714844 196.515625 Z M 88.714844 179.6875 " clip-rule="nonzero"/></clipPath><clipPath id="2be81094ba"><path d="M 101.5625 188.070312 C 101.574219 185.601562 99.523438 183.550781 97.058594 183.566406 C 94.59375 183.585938 92.546875 185.628906 92.558594 188.101562 C 92.574219 190.457031 94.363281 192.664062 97.128906 192.621094 C 100.117188 192.574219 101.675781 190.144531 101.5625 188.070312 M 103.304688 184.09375 C 103.332031 184.085938 103.488281 184.039062 103.644531 184.03125 C 103.984375 184.007812 104.53125 183.871094 104.628906 184.019531 C 104.9375 184.5 105.136719 185.074219 105.257812 185.640625 C 105.289062 185.789062 104.914062 186.074219 104.683594 186.230469 C 103.761719 186.84375 103.347656 188.039062 103.835938 189.035156 C 104.011719 189.390625 104.40625 189.664062 104.753906 189.902344 C 105.386719 190.332031 105.460938 190.574219 105.113281 191.421875 C 104.878906 191.996094 104.621094 192.476562 103.851562 192.15625 C 102.414062 191.554688 100.503906 193.503906 101.21875 194.902344 C 101.476562 195.398438 101.253906 195.757812 100.734375 195.992188 C 99.503906 196.546875 99.511719 196.5625 98.785156 195.4375 C 98.074219 194.335938 96.097656 194.40625 95.386719 195.5625 C 94.792969 196.53125 94.738281 196.546875 93.691406 196.113281 C 92.882812 195.773438 92.773438 195.617188 93.050781 194.75 C 93.347656 193.800781 92.847656 193.234375 92.242188 192.65625 C 91.691406 192.132812 91.109375 191.902344 90.375 192.242188 C 89.847656 192.484375 89.457031 192.351562 89.195312 191.796875 C 88.71875 190.796875 88.730469 190.449219 89.328125 190.054688 C 90.40625 189.335938 90.648438 188.691406 90.40625 187.453125 C 90.285156 186.824219 89.871094 186.53125 89.363281 186.269531 C 88.75 185.945312 88.6875 185.65625 89.007812 184.832031 C 89.335938 183.976562 89.535156 183.847656 90.238281 184.023438 C 91.414062 184.316406 92.777344 183.566406 93.070312 182.40625 C 93.144531 182.105469 93.035156 181.726562 92.929688 181.410156 C 92.726562 180.800781 92.84375 180.378906 93.5 180.179688 L 94.066406 179.933594 C 94.527344 179.714844 94.835938 179.851562 95.097656 180.285156 C 95.816406 181.46875 96.492188 181.792969 97.789062 181.421875 C 98.1875 181.304688 98.554688 180.875 98.8125 180.503906 C 99.351562 179.734375 99.527344 179.652344 100.449219 180.070312 C 101.246094 180.433594 101.359375 180.691406 101.097656 181.519531 C 100.75 182.621094 101.960938 184.132812 103.300781 184.089844 " clip-rule="nonzero"/></clipPath><clipPath id="d3db692c26"><path d="M 74.507812 160 L 82.09375 160 L 82.09375 167.6875 L 74.507812 167.6875 Z M 74.507812 160 " clip-rule="nonzero"/></clipPath><clipPath id="a60cc255b2"><path d="M 82.082031 166.191406 C 82.0625 167.25 80.914062 167.921875 80.167969 167.484375 L 79.621094 167.070312 C 78.085938 165.550781 76.546875 164.035156 75.03125 162.496094 C 74.25 161.699219 74.363281 160.742188 75.234375 160.238281 C 75.773438 159.929688 76.277344 160.015625 76.691406 160.417969 L 81.707031 165.445312 C 81.929688 165.671875 82.007812 166.039062 82.082031 166.191406 " clip-rule="nonzero"/></clipPath><clipPath id="ca5a01cd42"><path d="M 111.613281 160 L 119.199219 160 L 119.199219 167.824219 L 111.613281 167.824219 Z M 111.613281 160 " clip-rule="nonzero"/></clipPath><clipPath id="646cf89d75"><path d="M 112.816406 167.8125 C 112.414062 167.4375 111.921875 167.167969 111.753906 166.761719 C 111.609375 166.421875 111.695312 165.800781 111.9375 165.515625 C 112.703125 164.605469 113.589844 163.792969 114.433594 162.945312 L 116.789062 160.617188 C 117.546875 159.90625 118.191406 159.886719 118.773438 160.488281 C 119.332031 161.066406 119.300781 161.828125 118.632812 162.507812 L 114.132812 166.988281 C 113.800781 167.304688 113.339844 167.492188 112.816406 167.8125 " clip-rule="nonzero"/></clipPath><clipPath id="d0f89d08fc"><path d="M 118.234375 181 L 127.886719 181 L 127.886719 183.824219 L 118.234375 183.824219 Z M 118.234375 181 " clip-rule="nonzero"/></clipPath><clipPath id="4f90bf445a"><path d="M 121.003906 181.0625 C 120.800781 181.0625 120.597656 181.0625 120.394531 181.0625 L 119.5 181.082031 C 118.769531 181.175781 118.25 181.765625 118.28125 182.433594 C 118.320312 183.179688 118.832031 183.679688 119.617188 183.691406 L 122.996094 183.695312 L 126.578125 183.691406 C 127.304688 183.679688 127.804688 183.210938 127.878906 182.53125 C 127.949219 181.917969 127.46875 181.28125 126.796875 181.132812 C 126.53125 181.078125 126.25 181.070312 125.976562 181.070312 C 124.320312 181.0625 122.660156 181.0625 121 181.0625 Z M 121.003906 181.0625 " clip-rule="nonzero"/></clipPath><clipPath id="e56235c106"><path d="M 95.472656 152.652344 L 98.230469 152.652344 L 98.230469 162.167969 L 95.472656 162.167969 Z M 95.472656 152.652344 " clip-rule="nonzero"/></clipPath><clipPath id="794d06a61b"><path d="M 96.921875 152.652344 C 96.601562 152.652344 96.253906 152.742188 96.023438 152.898438 C 95.730469 153.097656 95.535156 153.636719 95.523438 154.027344 C 95.476562 156.230469 95.492188 158.433594 95.492188 160.640625 L 95.542969 160.976562 C 95.710938 161.734375 96.164062 162.148438 96.824219 162.148438 C 96.875 162.148438 96.925781 162.144531 96.980469 162.140625 C 97.65625 162.078125 98.101562 161.542969 98.109375 160.753906 L 98.113281 157.515625 L 98.121094 157.515625 C 98.121094 156.253906 98.175781 154.992188 98.085938 153.734375 C 98.058594 153.363281 97.6875 152.847656 97.351562 152.71875 C 97.230469 152.671875 97.082031 152.652344 96.929688 152.652344 Z M 96.921875 152.652344 " clip-rule="nonzero"/></clipPath></defs><rect x="-37.5" width="450" fill="#ffffff" y="-37.499999" height="449.999989" fill-opacity="1"/><rect x="-37.5" width="450" fill="#ffffff" y="-37.499999" height="449.999989" fill-opacity="1"/><g fill="#072fbb" fill-opacity="1"><g transform="translate(0.0000045, 290.249979)"><g><path d="M 36.125 -205.515625 L 87.921875 -205.234375 C 114.984375 -205.234375 138.78125 -195.476562 159.3125 -175.96875 C 179.851562 -156.46875 190.125 -132.484375 190.125 -104.015625 C 190.125 -75.546875 180.085938 -51.140625 160.015625 -30.796875 C 139.953125 -10.453125 115.640625 -0.28125 87.078125 -0.28125 L 35.84375 -0.28125 C 24.457031 -0.28125 17.363281 -2.613281 14.5625 -7.28125 C 12.320312 -11.195312 11.203125 -17.171875 11.203125 -25.203125 L 11.203125 -180.875 C 11.203125 -185.351562 11.34375 -188.617188 11.625 -190.671875 C 11.90625 -192.734375 12.789062 -195.160156 14.28125 -197.953125 C 16.894531 -202.992188 24.175781 -205.515625 36.125 -205.515625 Z M 87.921875 -49.84375 C 101.359375 -49.84375 113.488281 -54.832031 124.3125 -64.8125 C 135.144531 -74.800781 140.5625 -87.351562 140.5625 -102.46875 C 140.5625 -117.59375 135.285156 -130.242188 124.734375 -140.421875 C 114.191406 -150.597656 101.828125 -155.6875 87.640625 -155.6875 L 60.765625 -155.6875 L 60.765625 -49.84375 Z M 87.921875 -49.84375 "/></g></g></g><g fill="#072fbb" fill-opacity="1"><g transform="translate(194.380847, 290.249979)"><g><path d="M 147 -205.234375 C 151.289062 -205.234375 154.507812 -205.09375 156.65625 -204.8125 C 158.800781 -204.539062 161.226562 -203.65625 163.9375 -202.15625 C 166.644531 -200.664062 168.554688 -198.144531 169.671875 -194.59375 C 170.796875 -191.050781 171.359375 -186.289062 171.359375 -180.3125 C 171.359375 -174.34375 170.796875 -169.582031 169.671875 -166.03125 C 168.554688 -162.488281 166.597656 -160.015625 163.796875 -158.609375 C 160.992188 -157.210938 158.519531 -156.375 156.375 -156.09375 C 154.226562 -155.820312 150.914062 -155.6875 146.4375 -155.6875 L 60.765625 -155.6875 L 60.765625 -127.40625 L 115.921875 -127.40625 C 120.398438 -127.40625 123.710938 -127.265625 125.859375 -126.984375 C 128.003906 -126.703125 130.476562 -125.8125 133.28125 -124.3125 C 138.132812 -121.519531 140.5625 -114.148438 140.5625 -102.203125 C 140.5625 -89.128906 137.015625 -81.378906 129.921875 -78.953125 C 126.929688 -78.023438 122.171875 -77.5625 115.640625 -77.5625 L 60.765625 -77.5625 L 60.765625 -24.640625 C 60.765625 -20.160156 60.625 -16.894531 60.34375 -14.84375 C 60.0625 -12.789062 59.175781 -10.363281 57.6875 -7.5625 C 55.070312 -2.519531 47.789062 0 35.84375 0 C 22.769531 0 15.113281 -3.546875 12.875 -10.640625 C 11.757812 -13.628906 11.203125 -18.390625 11.203125 -24.921875 L 11.203125 -180.59375 C 11.203125 -190.113281 12.972656 -196.597656 16.515625 -200.046875 C 20.066406 -203.503906 26.789062 -205.234375 36.6875 -205.234375 Z M 147 -205.234375 "/></g></g></g><g clip-path="url(#be6343c794)"><g clip-path="url(#f95b7e818f)"><path fill="#343434" d="M 65.800781 181.054688 L 75.398438 181.054688 L 75.398438 183.703125 L 65.800781 183.703125 Z M 65.800781 181.054688 " fill-opacity="1" fill-rule="nonzero"/></g></g><g clip-path="url(#60d1b638f3)"><g clip-path="url(#2d6581edfa)"><path fill="#343434" d="M 87.191406 214.324219 L 106.496094 214.324219 L 106.496094 217.515625 L 87.191406 217.515625 Z M 87.191406 214.324219 " fill-opacity="1" fill-rule="nonzero"/></g></g><g clip-path="url(#4feea6a5aa)"><g clip-path="url(#3e8c7a0943)"><path fill="#343434" d="M 91.421875 219.863281 L 102.257812 219.863281 L 102.257812 223.039062 L 91.421875 223.039062 Z M 91.421875 219.863281 " fill-opacity="1" fill-rule="nonzero"/></g></g><g clip-path="url(#a731df0722)"><g clip-path="url(#f2d9cebc4a)"><path fill="#072fbb" d="M 73.816406 151.960938 L 128.578125 151.960938 L 128.578125 212.238281 L 73.816406 212.238281 Z M 73.816406 151.960938 " fill-opacity="1" fill-rule="nonzero"/></g></g><g clip-path="url(#8925cea25e)"><g clip-path="url(#7419dd5cf4)"><path fill="#072fbb" d="M 73.816406 151.960938 L 128.578125 151.960938 L 128.578125 212.238281 L 73.816406 212.238281 Z M 73.816406 151.960938 " fill-opacity="1" fill-rule="nonzero"/></g></g><g clip-path="url(#7faf10dadb)"><g clip-path="url(#2be81094ba)"><path fill="#343434" d="M 73.816406 151.960938 L 128.578125 151.960938 L 128.578125 212.238281 L 73.816406 212.238281 Z M 73.816406 151.960938 " fill-opacity="1" fill-rule="nonzero"/></g></g><g clip-path="url(#d3db692c26)"><g clip-path="url(#a60cc255b2)"><path fill="#343434" d="M 73.816406 151.960938 L 128.578125 151.960938 L 128.578125 212.238281 L 73.816406 212.238281 Z M 73.816406 151.960938 " fill-opacity="1" fill-rule="nonzero"/></g></g><g clip-path="url(#ca5a01cd42)"><g clip-path="url(#646cf89d75)"><path fill="#343434" d="M 73.816406 151.960938 L 128.578125 151.960938 L 128.578125 212.238281 L 73.816406 212.238281 Z M 73.816406 151.960938 " fill-opacity="1" fill-rule="nonzero"/></g></g><g clip-path="url(#d0f89d08fc)"><g clip-path="url(#4f90bf445a)"><path fill="#343434" d="M 73.816406 151.960938 L 128.578125 151.960938 L 128.578125 212.238281 L 73.816406 212.238281 Z M 73.816406 151.960938 " fill-opacity="1" fill-rule="nonzero"/></g></g><g clip-path="url(#e56235c106)"><g clip-path="url(#794d06a61b)"><path fill="#343434" d="M 73.816406 151.960938 L 128.578125 151.960938 L 128.578125 212.238281 L 73.816406 212.238281 Z M 73.816406 151.960938 " fill-opacity="1" fill-rule="nonzero"/></g></g><g fill="#737373" fill-opacity="1"><g transform="translate(265.944244, 154.586299)"><g><path d="M 6.9375 -10.21875 L 11 -1.84375 C 11.164062 -1.5 11.25 -1.242188 11.25 -1.078125 C 11.25 -0.722656 10.957031 -0.398438 10.375 -0.109375 C 10.039062 0.0664062 9.773438 0.15625 9.578125 0.15625 C 9.378906 0.15625 9.21875 0.109375 9.09375 0.015625 C 8.96875 -0.078125 8.878906 -0.171875 8.828125 -0.265625 C 8.773438 -0.367188 8.695312 -0.519531 8.59375 -0.71875 L 7.8125 -2.34375 L 3.65625 -2.34375 L 2.875 -0.71875 C 2.78125 -0.519531 2.703125 -0.375 2.640625 -0.28125 C 2.585938 -0.195312 2.5 -0.101562 2.375 0 C 2.25 0.09375 2.085938 0.140625 1.890625 0.140625 C 1.703125 0.140625 1.4375 0.0507812 1.09375 -0.125 C 0.507812 -0.40625 0.21875 -0.722656 0.21875 -1.078125 C 0.21875 -1.242188 0.304688 -1.5 0.484375 -1.84375 L 4.53125 -10.234375 C 4.632812 -10.460938 4.800781 -10.644531 5.03125 -10.78125 C 5.257812 -10.925781 5.5 -11 5.75 -11 C 6.289062 -11 6.6875 -10.738281 6.9375 -10.21875 Z M 5.734375 -6.609375 L 4.734375 -4.5625 L 6.734375 -4.5625 Z M 5.734375 -6.609375 "/></g></g></g><g fill="#737373" fill-opacity="1"><g transform="translate(278.319235, 154.586299)"><g><path d="M 5 -7.90625 C 6 -7.90625 6.828125 -7.519531 7.484375 -6.75 C 8.148438 -5.988281 8.484375 -5.054688 8.484375 -3.953125 L 8.484375 -1.3125 C 8.484375 -1.082031 8.472656 -0.910156 8.453125 -0.796875 C 8.441406 -0.679688 8.40625 -0.554688 8.34375 -0.421875 C 8.195312 -0.148438 7.804688 -0.015625 7.171875 -0.015625 C 6.460938 -0.015625 6.050781 -0.195312 5.9375 -0.5625 C 5.875 -0.738281 5.84375 -0.992188 5.84375 -1.328125 L 5.84375 -3.96875 C 5.84375 -4.382812 5.722656 -4.707031 5.484375 -4.9375 C 5.253906 -5.164062 4.941406 -5.28125 4.546875 -5.28125 C 4.148438 -5.28125 3.828125 -5.160156 3.578125 -4.921875 C 3.335938 -4.679688 3.21875 -4.363281 3.21875 -3.96875 L 3.21875 -1.3125 C 3.21875 -1.082031 3.210938 -0.910156 3.203125 -0.796875 C 3.191406 -0.679688 3.144531 -0.554688 3.0625 -0.421875 C 2.925781 -0.148438 2.539062 -0.015625 1.90625 -0.015625 C 1.269531 -0.015625 0.882812 -0.148438 0.75 -0.421875 C 0.675781 -0.566406 0.628906 -0.695312 0.609375 -0.8125 C 0.597656 -0.925781 0.59375 -1.097656 0.59375 -1.328125 L 0.59375 -6.640625 C 0.59375 -6.859375 0.597656 -7.023438 0.609375 -7.140625 C 0.628906 -7.253906 0.679688 -7.382812 0.765625 -7.53125 C 0.898438 -7.78125 1.285156 -7.90625 1.921875 -7.90625 C 2.523438 -7.90625 2.898438 -7.789062 3.046875 -7.5625 C 3.140625 -7.394531 3.1875 -7.1875 3.1875 -6.9375 C 3.226562 -7.007812 3.316406 -7.109375 3.453125 -7.234375 C 3.597656 -7.367188 3.738281 -7.476562 3.875 -7.5625 C 4.207031 -7.789062 4.582031 -7.90625 5 -7.90625 Z M 5 -7.90625 "/></g></g></g><g fill="#737373" fill-opacity="1"><g transform="translate(288.309231, 154.586299)"><g><path d="M 5.734375 -7.0625 C 5.785156 -7.625 6.179688 -7.90625 6.921875 -7.90625 C 7.304688 -7.90625 7.59375 -7.875 7.78125 -7.8125 C 7.96875 -7.75 8.097656 -7.644531 8.171875 -7.5 C 8.253906 -7.351562 8.300781 -7.222656 8.3125 -7.109375 C 8.332031 -6.992188 8.34375 -6.816406 8.34375 -6.578125 L 8.34375 -1.328125 C 8.34375 -1.097656 8.332031 -0.925781 8.3125 -0.8125 C 8.300781 -0.695312 8.257812 -0.566406 8.1875 -0.421875 C 8.050781 -0.160156 7.707031 -0.03125 7.15625 -0.03125 C 6.613281 -0.03125 6.25 -0.0976562 6.0625 -0.234375 C 5.882812 -0.367188 5.78125 -0.566406 5.75 -0.828125 C 5.375 -0.296875 4.753906 -0.03125 3.890625 -0.03125 C 3.023438 -0.03125 2.222656 -0.425781 1.484375 -1.21875 C 0.742188 -2.007812 0.375 -2.925781 0.375 -3.96875 C 0.375 -5.007812 0.742188 -5.921875 1.484375 -6.703125 C 2.234375 -7.492188 3.050781 -7.890625 3.9375 -7.890625 C 4.28125 -7.890625 4.59375 -7.828125 4.875 -7.703125 C 5.15625 -7.585938 5.347656 -7.476562 5.453125 -7.375 C 5.566406 -7.269531 5.660156 -7.164062 5.734375 -7.0625 Z M 3 -3.9375 C 3 -3.613281 3.128906 -3.316406 3.390625 -3.046875 C 3.648438 -2.785156 3.960938 -2.65625 4.328125 -2.65625 C 4.703125 -2.65625 5.007812 -2.789062 5.25 -3.0625 C 5.5 -3.332031 5.625 -3.628906 5.625 -3.953125 C 5.625 -4.273438 5.503906 -4.578125 5.265625 -4.859375 C 5.035156 -5.140625 4.722656 -5.28125 4.328125 -5.28125 C 3.929688 -5.28125 3.609375 -5.140625 3.359375 -4.859375 C 3.117188 -4.578125 3 -4.269531 3 -3.9375 Z M 3 -3.9375 "/></g></g></g><g fill="#737373" fill-opacity="1"><g transform="translate(298.149218, 154.586299)"><g><path d="M 0.59375 -10.3125 C 0.59375 -10.539062 0.597656 -10.710938 0.609375 -10.828125 C 0.628906 -10.941406 0.675781 -11.070312 0.75 -11.21875 C 0.882812 -11.488281 1.273438 -11.625 1.921875 -11.625 C 2.523438 -11.625 2.90625 -11.488281 3.0625 -11.21875 C 3.144531 -11.070312 3.191406 -10.9375 3.203125 -10.8125 C 3.210938 -10.695312 3.21875 -10.523438 3.21875 -10.296875 L 3.21875 -3.34375 C 3.21875 -2.988281 3.25 -2.757812 3.3125 -2.65625 C 3.375 -2.5625 3.503906 -2.515625 3.703125 -2.515625 C 3.910156 -2.515625 4.050781 -2.503906 4.125 -2.484375 C 4.195312 -2.472656 4.28125 -2.4375 4.375 -2.375 C 4.582031 -2.238281 4.6875 -1.882812 4.6875 -1.3125 C 4.6875 -0.675781 4.582031 -0.289062 4.375 -0.15625 C 4.113281 0.03125 3.492188 0.0625 2.515625 -0.0625 C 1.742188 -0.15625 1.242188 -0.410156 1.015625 -0.828125 C 0.734375 -1.316406 0.59375 -2.097656 0.59375 -3.171875 Z M 0.59375 -10.3125 "/></g></g></g><g fill="#737373" fill-opacity="1"><g transform="translate(303.954214, 154.586299)"><g><path d="M 7.953125 -7.8125 C 8.535156 -7.550781 8.828125 -7.238281 8.828125 -6.875 C 8.828125 -6.6875 8.785156 -6.515625 8.703125 -6.359375 C 8.628906 -6.203125 8.59375 -6.117188 8.59375 -6.109375 L 4.671875 2.6875 C 4.585938 2.875 4.515625 3.015625 4.453125 3.109375 C 4.398438 3.210938 4.3125 3.3125 4.1875 3.40625 C 4.070312 3.5 3.925781 3.546875 3.75 3.546875 C 3.570312 3.546875 3.304688 3.46875 2.953125 3.3125 C 2.359375 3.050781 2.0625 2.742188 2.0625 2.390625 C 2.0625 2.148438 2.546875 1.003906 3.515625 -1.046875 L 0.53125 -6.078125 C 0.320312 -6.398438 0.21875 -6.644531 0.21875 -6.8125 C 0.21875 -7.132812 0.488281 -7.453125 1.03125 -7.765625 C 1.375 -7.960938 1.640625 -8.0625 1.828125 -8.0625 C 2.015625 -8.0625 2.164062 -8.019531 2.28125 -7.9375 C 2.40625 -7.863281 2.492188 -7.785156 2.546875 -7.703125 C 2.609375 -7.617188 2.882812 -7.15625 3.375 -6.3125 C 3.875 -5.46875 4.347656 -4.675781 4.796875 -3.9375 C 4.847656 -4.101562 5.117188 -4.722656 5.609375 -5.796875 C 6.097656 -6.867188 6.359375 -7.441406 6.390625 -7.515625 C 6.429688 -7.585938 6.488281 -7.671875 6.5625 -7.765625 C 6.695312 -7.941406 6.878906 -8.03125 7.109375 -8.03125 C 7.347656 -8.03125 7.628906 -7.957031 7.953125 -7.8125 Z M 7.953125 -7.8125 "/></g></g></g><g fill="#737373" fill-opacity="1"><g transform="translate(313.914203, 154.586299)"><g><path d="M 5.1875 -5.25 L 4.21875 -5.3125 L 4.21875 -3.234375 C 4.21875 -2.960938 4.257812 -2.765625 4.34375 -2.640625 C 4.425781 -2.523438 4.582031 -2.46875 4.8125 -2.46875 C 5.050781 -2.46875 5.234375 -2.460938 5.359375 -2.453125 C 5.484375 -2.441406 5.617188 -2.394531 5.765625 -2.3125 C 5.992188 -2.175781 6.109375 -1.84375 6.109375 -1.3125 C 6.109375 -0.675781 5.96875 -0.289062 5.6875 -0.15625 C 5.53125 -0.0820312 5.394531 -0.0351562 5.28125 -0.015625 C 5.164062 -0.00390625 5 0 4.78125 0 C 3.738281 0 2.945312 -0.234375 2.40625 -0.703125 C 1.875 -1.171875 1.609375 -1.96875 1.609375 -3.09375 L 1.609375 -5.3125 C 1.410156 -5.28125 1.203125 -5.265625 0.984375 -5.265625 C 0.765625 -5.265625 0.582031 -5.347656 0.4375 -5.515625 C 0.289062 -5.691406 0.21875 -5.984375 0.21875 -6.390625 C 0.21875 -6.796875 0.242188 -7.09375 0.296875 -7.28125 C 0.347656 -7.46875 0.421875 -7.601562 0.515625 -7.6875 C 0.671875 -7.8125 0.867188 -7.875 1.109375 -7.875 L 1.609375 -7.8125 L 1.609375 -9.359375 C 1.609375 -9.585938 1.613281 -9.753906 1.625 -9.859375 C 1.644531 -9.972656 1.691406 -10.097656 1.765625 -10.234375 C 1.898438 -10.484375 2.285156 -10.609375 2.921875 -10.609375 C 3.597656 -10.609375 4.003906 -10.421875 4.140625 -10.046875 C 4.191406 -9.890625 4.21875 -9.632812 4.21875 -9.28125 L 4.21875 -7.8125 C 4.65625 -7.851562 4.984375 -7.875 5.203125 -7.875 C 5.429688 -7.875 5.601562 -7.863281 5.71875 -7.84375 C 5.832031 -7.832031 5.96875 -7.785156 6.125 -7.703125 C 6.382812 -7.578125 6.515625 -7.195312 6.515625 -6.5625 C 6.515625 -5.925781 6.378906 -5.539062 6.109375 -5.40625 C 5.953125 -5.332031 5.816406 -5.285156 5.703125 -5.265625 C 5.585938 -5.253906 5.414062 -5.25 5.1875 -5.25 Z M 5.1875 -5.25 "/></g></g></g><g fill="#737373" fill-opacity="1"><g transform="translate(321.5492, 154.586299)"><g><path d="M 0.59375 -6.578125 C 0.59375 -6.816406 0.597656 -6.992188 0.609375 -7.109375 C 0.628906 -7.222656 0.675781 -7.351562 0.75 -7.5 C 0.882812 -7.757812 1.273438 -7.890625 1.921875 -7.890625 C 2.398438 -7.890625 2.738281 -7.804688 2.9375 -7.640625 C 3.101562 -7.492188 3.191406 -7.273438 3.203125 -6.984375 C 3.210938 -6.890625 3.21875 -6.75 3.21875 -6.5625 L 3.21875 -1.3125 C 3.21875 -1.070312 3.210938 -0.894531 3.203125 -0.78125 C 3.191406 -0.664062 3.144531 -0.535156 3.0625 -0.390625 C 2.925781 -0.128906 2.539062 0 1.90625 0 C 1.269531 0 0.882812 -0.132812 0.75 -0.40625 C 0.675781 -0.550781 0.628906 -0.675781 0.609375 -0.78125 C 0.597656 -0.894531 0.59375 -1.070312 0.59375 -1.3125 Z M 3.0625 -9.359375 C 2.988281 -9.222656 2.859375 -9.125 2.671875 -9.0625 C 2.484375 -9 2.226562 -8.96875 1.90625 -8.96875 C 1.59375 -8.96875 1.34375 -9 1.15625 -9.0625 C 0.96875 -9.125 0.832031 -9.226562 0.75 -9.375 C 0.675781 -9.519531 0.628906 -9.648438 0.609375 -9.765625 C 0.597656 -9.878906 0.59375 -10.050781 0.59375 -10.28125 C 0.59375 -10.519531 0.597656 -10.695312 0.609375 -10.8125 C 0.628906 -10.925781 0.675781 -11.050781 0.75 -11.1875 C 0.882812 -11.457031 1.273438 -11.59375 1.921875 -11.59375 C 2.546875 -11.59375 2.925781 -11.457031 3.0625 -11.1875 C 3.144531 -11.039062 3.191406 -10.910156 3.203125 -10.796875 C 3.210938 -10.679688 3.21875 -10.507812 3.21875 -10.28125 C 3.21875 -10.050781 3.210938 -9.875 3.203125 -9.75 C 3.191406 -9.632812 3.144531 -9.503906 3.0625 -9.359375 Z M 3.0625 -9.359375 "/></g></g></g><g fill="#737373" fill-opacity="1"><g transform="translate(326.274191, 154.586299)"><g><path d="M 3.078125 -3.953125 C 3.078125 -3.523438 3.21875 -3.191406 3.5 -2.953125 C 3.78125 -2.722656 4.078125 -2.609375 4.390625 -2.609375 C 4.703125 -2.609375 4.992188 -2.703125 5.265625 -2.890625 C 5.546875 -3.078125 5.769531 -3.171875 5.9375 -3.171875 C 6.238281 -3.171875 6.601562 -2.90625 7.03125 -2.375 C 7.257812 -2.082031 7.375 -1.820312 7.375 -1.59375 C 7.375 -1.207031 7.101562 -0.851562 6.5625 -0.53125 C 5.988281 -0.125 5.285156 0.078125 4.453125 0.078125 C 3.523438 0.078125 2.628906 -0.257812 1.765625 -0.9375 C 1.359375 -1.25 1.023438 -1.671875 0.765625 -2.203125 C 0.503906 -2.742188 0.375 -3.335938 0.375 -3.984375 C 0.375 -4.628906 0.503906 -5.210938 0.765625 -5.734375 C 1.023438 -6.265625 1.359375 -6.6875 1.765625 -7 C 2.597656 -7.664062 3.484375 -8 4.421875 -8 C 4.804688 -8 5.175781 -7.945312 5.53125 -7.84375 C 5.894531 -7.738281 6.160156 -7.632812 6.328125 -7.53125 L 6.5625 -7.375 C 6.75 -7.257812 6.890625 -7.164062 6.984375 -7.09375 C 7.242188 -6.894531 7.375 -6.664062 7.375 -6.40625 C 7.375 -6.15625 7.269531 -5.867188 7.0625 -5.546875 C 6.707031 -4.992188 6.363281 -4.71875 6.03125 -4.71875 C 5.84375 -4.71875 5.570312 -4.832031 5.21875 -5.0625 C 5.039062 -5.226562 4.78125 -5.3125 4.4375 -5.3125 C 4.101562 -5.3125 3.789062 -5.191406 3.5 -4.953125 C 3.21875 -4.710938 3.078125 -4.378906 3.078125 -3.953125 Z M 3.078125 -3.953125 "/></g></g></g><g fill="#737373" fill-opacity="1"><g transform="translate(334.929185, 154.586299)"><g><path d="M 5.734375 -7.0625 C 5.785156 -7.625 6.179688 -7.90625 6.921875 -7.90625 C 7.304688 -7.90625 7.59375 -7.875 7.78125 -7.8125 C 7.96875 -7.75 8.097656 -7.644531 8.171875 -7.5 C 8.253906 -7.351562 8.300781 -7.222656 8.3125 -7.109375 C 8.332031 -6.992188 8.34375 -6.816406 8.34375 -6.578125 L 8.34375 -1.328125 C 8.34375 -1.097656 8.332031 -0.925781 8.3125 -0.8125 C 8.300781 -0.695312 8.257812 -0.566406 8.1875 -0.421875 C 8.050781 -0.160156 7.707031 -0.03125 7.15625 -0.03125 C 6.613281 -0.03125 6.25 -0.0976562 6.0625 -0.234375 C 5.882812 -0.367188 5.78125 -0.566406 5.75 -0.828125 C 5.375 -0.296875 4.753906 -0.03125 3.890625 -0.03125 C 3.023438 -0.03125 2.222656 -0.425781 1.484375 -1.21875 C 0.742188 -2.007812 0.375 -2.925781 0.375 -3.96875 C 0.375 -5.007812 0.742188 -5.921875 1.484375 -6.703125 C 2.234375 -7.492188 3.050781 -7.890625 3.9375 -7.890625 C 4.28125 -7.890625 4.59375 -7.828125 4.875 -7.703125 C 5.15625 -7.585938 5.347656 -7.476562 5.453125 -7.375 C 5.566406 -7.269531 5.660156 -7.164062 5.734375 -7.0625 Z M 3 -3.9375 C 3 -3.613281 3.128906 -3.316406 3.390625 -3.046875 C 3.648438 -2.785156 3.960938 -2.65625 4.328125 -2.65625 C 4.703125 -2.65625 5.007812 -2.789062 5.25 -3.0625 C 5.5 -3.332031 5.625 -3.628906 5.625 -3.953125 C 5.625 -4.273438 5.503906 -4.578125 5.265625 -4.859375 C 5.035156 -5.140625 4.722656 -5.28125 4.328125 -5.28125 C 3.929688 -5.28125 3.609375 -5.140625 3.359375 -4.859375 C 3.117188 -4.578125 3 -4.269531 3 -3.9375 Z M 3 -3.9375 "/></g></g></g><g fill="#737373" fill-opacity="1"><g transform="translate(344.76917, 154.586299)"><g><path d="M 0.59375 -10.3125 C 0.59375 -10.539062 0.597656 -10.710938 0.609375 -10.828125 C 0.628906 -10.941406 0.675781 -11.070312 0.75 -11.21875 C 0.882812 -11.488281 1.273438 -11.625 1.921875 -11.625 C 2.523438 -11.625 2.90625 -11.488281 3.0625 -11.21875 C 3.144531 -11.070312 3.191406 -10.9375 3.203125 -10.8125 C 3.210938 -10.695312 3.21875 -10.523438 3.21875 -10.296875 L 3.21875 -3.34375 C 3.21875 -2.988281 3.25 -2.757812 3.3125 -2.65625 C 3.375 -2.5625 3.503906 -2.515625 3.703125 -2.515625 C 3.910156 -2.515625 4.050781 -2.503906 4.125 -2.484375 C 4.195312 -2.472656 4.28125 -2.4375 4.375 -2.375 C 4.582031 -2.238281 4.6875 -1.882812 4.6875 -1.3125 C 4.6875 -0.675781 4.582031 -0.289062 4.375 -0.15625 C 4.113281 0.03125 3.492188 0.0625 2.515625 -0.0625 C 1.742188 -0.15625 1.242188 -0.410156 1.015625 -0.828125 C 0.734375 -1.316406 0.59375 -2.097656 0.59375 -3.171875 Z M 0.59375 -10.3125 "/></g></g></g><g fill="#737373" fill-opacity="1"><g transform="translate(274.569244, 228.288883)"><g><path d="M 3.25 -2.65625 L 7.875 -2.65625 C 8.101562 -2.65625 8.273438 -2.644531 8.390625 -2.625 C 8.503906 -2.613281 8.640625 -2.566406 8.796875 -2.484375 C 9.054688 -2.347656 9.1875 -1.957031 9.1875 -1.3125 C 9.1875 -0.613281 9.003906 -0.207031 8.640625 -0.09375 C 8.472656 -0.03125 8.210938 0 7.859375 0 L 1.921875 0 C 1.222656 0 0.8125 -0.1875 0.6875 -0.5625 C 0.625 -0.726562 0.59375 -0.984375 0.59375 -1.328125 L 0.59375 -9.671875 C 0.59375 -10.179688 0.6875 -10.53125 0.875 -10.71875 C 1.070312 -10.90625 1.4375 -11 1.96875 -11 L 7.875 -11 C 8.101562 -11 8.273438 -10.988281 8.390625 -10.96875 C 8.503906 -10.957031 8.640625 -10.910156 8.796875 -10.828125 C 9.054688 -10.691406 9.1875 -10.300781 9.1875 -9.65625 C 9.1875 -8.957031 9.003906 -8.550781 8.640625 -8.4375 C 8.472656 -8.375 8.210938 -8.34375 7.859375 -8.34375 L 3.25 -8.34375 L 3.25 -6.828125 L 6.21875 -6.828125 C 6.445312 -6.828125 6.617188 -6.816406 6.734375 -6.796875 C 6.859375 -6.785156 6.992188 -6.738281 7.140625 -6.65625 C 7.410156 -6.519531 7.546875 -6.128906 7.546875 -5.484375 C 7.546875 -4.785156 7.351562 -4.378906 6.96875 -4.265625 C 6.800781 -4.203125 6.539062 -4.171875 6.1875 -4.171875 L 3.25 -4.171875 Z M 3.25 -2.65625 "/></g></g></g><g fill="#737373" fill-opacity="1"><g transform="translate(285.039239, 228.288883)"><g><path d="M 5.90625 -11.203125 C 5.976562 -11.347656 6.109375 -11.445312 6.296875 -11.5 C 6.484375 -11.5625 6.734375 -11.59375 7.046875 -11.59375 C 7.367188 -11.59375 7.625 -11.5625 7.8125 -11.5 C 8 -11.445312 8.128906 -11.34375 8.203125 -11.1875 C 8.285156 -11.039062 8.332031 -10.910156 8.34375 -10.796875 C 8.363281 -10.679688 8.375 -10.507812 8.375 -10.28125 L 8.375 -1.3125 C 8.375 -1.082031 8.363281 -0.910156 8.34375 -0.796875 C 8.332031 -0.679688 8.285156 -0.554688 8.203125 -0.421875 C 8.054688 -0.148438 7.632812 -0.015625 6.9375 -0.015625 C 6.238281 -0.015625 5.851562 -0.257812 5.78125 -0.75 C 5.351562 -0.269531 4.765625 -0.03125 4.015625 -0.03125 C 3.117188 -0.03125 2.300781 -0.421875 1.5625 -1.203125 C 0.820312 -1.992188 0.453125 -2.910156 0.453125 -3.953125 C 0.453125 -4.992188 0.820312 -5.910156 1.5625 -6.703125 C 2.3125 -7.492188 3.128906 -7.890625 4.015625 -7.890625 C 4.753906 -7.890625 5.332031 -7.640625 5.75 -7.140625 L 5.75 -10.296875 C 5.75 -10.523438 5.753906 -10.695312 5.765625 -10.8125 C 5.785156 -10.925781 5.832031 -11.054688 5.90625 -11.203125 Z M 3.46875 -3.046875 C 3.726562 -2.773438 4.039062 -2.640625 4.40625 -2.640625 C 4.78125 -2.640625 5.085938 -2.773438 5.328125 -3.046875 C 5.578125 -3.316406 5.703125 -3.613281 5.703125 -3.9375 C 5.703125 -4.257812 5.582031 -4.5625 5.34375 -4.84375 C 5.113281 -5.125 4.796875 -5.265625 4.390625 -5.265625 C 3.992188 -5.265625 3.675781 -5.125 3.4375 -4.84375 C 3.195312 -4.570312 3.078125 -4.269531 3.078125 -3.9375 C 3.078125 -3.613281 3.207031 -3.316406 3.46875 -3.046875 Z M 3.46875 -3.046875 "/></g></g></g><g fill="#737373" fill-opacity="1"><g transform="translate(294.909232, 228.288883)"><g><path d="M 5.609375 -0.984375 C 5.234375 -0.484375 4.628906 -0.234375 3.796875 -0.234375 C 2.960938 -0.234375 2.179688 -0.613281 1.453125 -1.375 C 0.734375 -2.144531 0.375 -3.039062 0.375 -4.0625 C 0.375 -5.082031 0.738281 -5.976562 1.46875 -6.75 C 2.195312 -7.519531 3 -7.90625 3.875 -7.90625 C 4.207031 -7.90625 4.515625 -7.84375 4.796875 -7.71875 C 5.078125 -7.59375 5.269531 -7.476562 5.375 -7.375 C 5.476562 -7.269531 5.5625 -7.171875 5.625 -7.078125 C 5.65625 -7.359375 5.753906 -7.570312 5.921875 -7.71875 C 6.097656 -7.863281 6.378906 -7.9375 6.765625 -7.9375 C 7.160156 -7.9375 7.445312 -7.90625 7.625 -7.84375 C 7.8125 -7.78125 7.941406 -7.675781 8.015625 -7.53125 C 8.085938 -7.382812 8.128906 -7.253906 8.140625 -7.140625 C 8.160156 -7.035156 8.171875 -6.867188 8.171875 -6.640625 L 8.171875 -0.4375 C 8.171875 0.71875 7.769531 1.644531 6.96875 2.34375 C 6.175781 3.050781 5.28125 3.40625 4.28125 3.40625 C 3.519531 3.40625 2.789062 3.21875 2.09375 2.84375 C 1.40625 2.476562 1.0625 2.144531 1.0625 1.84375 C 1.0625 1.457031 1.210938 1.113281 1.515625 0.8125 C 1.703125 0.601562 1.847656 0.457031 1.953125 0.375 C 2.054688 0.289062 2.175781 0.25 2.3125 0.25 C 2.457031 0.25 2.609375 0.3125 2.765625 0.4375 C 3.242188 0.800781 3.757812 0.984375 4.3125 0.984375 C 4.695312 0.984375 5.007812 0.832031 5.25 0.53125 C 5.488281 0.238281 5.609375 -0.117188 5.609375 -0.546875 Z M 2.9375 -4.046875 C 2.9375 -3.722656 3.0625 -3.429688 3.3125 -3.171875 C 3.570312 -2.921875 3.882812 -2.796875 4.25 -2.796875 C 4.613281 -2.796875 4.914062 -2.925781 5.15625 -3.1875 C 5.394531 -3.445312 5.515625 -3.734375 5.515625 -4.046875 C 5.515625 -4.367188 5.398438 -4.664062 5.171875 -4.9375 C 4.941406 -5.21875 4.628906 -5.359375 4.234375 -5.359375 C 3.847656 -5.359375 3.535156 -5.222656 3.296875 -4.953125 C 3.054688 -4.679688 2.9375 -4.378906 2.9375 -4.046875 Z M 2.9375 -4.046875 "/></g></g></g><g fill="#737373" fill-opacity="1"><g transform="translate(304.584216, 228.288883)"><g><path d="M 8.21875 -4.890625 C 8.21875 -4.273438 8.066406 -3.820312 7.765625 -3.53125 C 7.460938 -3.238281 7.125 -3.09375 6.75 -3.09375 L 3.1875 -3.09375 C 3.1875 -2.8125 3.351562 -2.570312 3.6875 -2.375 C 4.019531 -2.1875 4.351562 -2.09375 4.6875 -2.09375 C 5.257812 -2.09375 5.710938 -2.15625 6.046875 -2.28125 L 6.203125 -2.34375 C 6.441406 -2.445312 6.644531 -2.5 6.8125 -2.5 C 7.132812 -2.5 7.410156 -2.273438 7.640625 -1.828125 C 7.765625 -1.554688 7.828125 -1.328125 7.828125 -1.140625 C 7.828125 -0.253906 6.765625 0.1875 4.640625 0.1875 C 3.898438 0.1875 3.238281 0.0625 2.65625 -0.1875 C 2.082031 -0.4375 1.632812 -0.773438 1.3125 -1.203125 C 0.6875 -2.015625 0.375 -2.921875 0.375 -3.921875 C 0.375 -5.179688 0.78125 -6.1875 1.59375 -6.9375 C 2.40625 -7.6875 3.425781 -8.0625 4.65625 -8.0625 C 6.039062 -8.0625 7.054688 -7.570312 7.703125 -6.59375 C 8.046875 -6.070312 8.21875 -5.503906 8.21875 -4.890625 Z M 5.0625 -4.453125 C 5.4375 -4.453125 5.625 -4.613281 5.625 -4.9375 C 5.625 -5.164062 5.535156 -5.347656 5.359375 -5.484375 C 5.179688 -5.628906 4.929688 -5.703125 4.609375 -5.703125 C 4.285156 -5.703125 3.960938 -5.566406 3.640625 -5.296875 C 3.328125 -5.035156 3.171875 -4.753906 3.171875 -4.453125 Z M 5.0625 -4.453125 "/></g></g></g></svg>