<svg xmlns="http://www.w3.org/2000/svg" xmlns:xlink="http://www.w3.org/1999/xlink" width="480" zoomAndPan="magnify" viewBox="0 0 360 359.999987" height="480" preserveAspectRatio="xMidYMid meet" version="1.0"><defs><filter x="0%" y="0%" width="100%" height="100%" id="f571775d67"><feColorMatrix values="0 0 0 0 1 0 0 0 0 1 0 0 0 0 1 0 0 0 1 0" color-interpolation-filters="sRGB"/></filter><g/><clipPath id="615dd7882b"><path d="M 1.199219 1.199219 L 358.949219 1.199219 L 358.949219 358.949219 L 1.199219 358.949219 Z M 1.199219 1.199219 " clip-rule="nonzero"/></clipPath><mask id="c9e9219134"><g filter="url(#f571775d67)"><rect x="-36" width="432" fill="#000000" y="-35.999999" height="431.999984" fill-opacity="0.3"/></g></mask><clipPath id="13133f75e0"><path d="M 0.285156 0.285156 L 335.535156 0.285156 L 335.535156 335.535156 L 0.285156 335.535156 Z M 0.285156 0.285156 " clip-rule="nonzero"/></clipPath><clipPath id="a5e3c04a1b"><rect x="0" width="336" y="0" height="336"/></clipPath><clipPath id="04d93b6c40"><path d="M 143.039062 54.714844 L 154.351562 54.714844 L 154.351562 57.835938 L 143.039062 57.835938 Z M 143.039062 54.714844 " clip-rule="nonzero"/></clipPath><clipPath id="cd8d0375a1"><path d="M 151.566406 54.714844 C 151.007812 54.714844 150.449219 54.730469 149.890625 54.730469 L 144.617188 54.742188 C 143.71875 54.761719 143.046875 55.46875 143.039062 56.273438 L 143.039062 56.292969 C 143.039062 56.316406 143.039062 56.339844 143.042969 56.359375 C 143.089844 57.25 143.675781 57.800781 144.648438 57.8125 L 148.625 57.820312 C 149.40625 57.820312 150.1875 57.835938 150.96875 57.835938 C 151.59375 57.835938 152.222656 57.824219 152.84375 57.792969 C 153.261719 57.769531 153.792969 57.492188 154.039062 57.15625 C 154.792969 56.140625 154.0625 54.820312 152.734375 54.742188 C 152.34375 54.722656 151.957031 54.714844 151.566406 54.714844 Z M 151.566406 54.714844 " clip-rule="nonzero"/></clipPath><clipPath id="3a97ad0f83"><path d="M 168.210938 93.890625 L 190.957031 93.890625 L 190.957031 97.648438 L 168.210938 97.648438 Z M 168.210938 93.890625 " clip-rule="nonzero"/></clipPath><clipPath id="497f23c1a3"><path d="M 179.652344 93.890625 L 188.90625 93.894531 C 190.125 93.894531 190.902344 94.597656 190.953125 95.710938 C 190.996094 96.699219 190.097656 97.574219 188.941406 97.628906 L 186.992188 97.640625 C 181.605469 97.640625 176.222656 97.640625 170.832031 97.632812 C 170.433594 97.632812 170.019531 97.605469 169.632812 97.507812 C 168.730469 97.285156 168.144531 96.441406 168.234375 95.585938 C 168.339844 94.574219 169.035156 93.90625 170.070312 93.902344 L 179.652344 93.894531 Z M 179.652344 93.890625 " clip-rule="nonzero"/></clipPath><clipPath id="14fdc176bf"><path d="M 173.195312 100.410156 L 185.96875 100.410156 L 185.96875 104.136719 L 173.195312 104.136719 Z M 173.195312 100.410156 " clip-rule="nonzero"/></clipPath><clipPath id="afd4d559d0"><path d="M 179.675781 100.417969 L 184.058594 100.417969 C 185.21875 100.429688 185.957031 101.160156 185.960938 102.261719 C 185.964844 103.398438 185.289062 104.121094 184.089844 104.132812 L 175.160156 104.132812 C 173.898438 104.117188 173.195312 103.390625 173.210938 102.242188 C 173.226562 101.078125 173.921875 100.433594 175.210938 100.417969 L 179.675781 100.417969 " clip-rule="nonzero"/></clipPath><clipPath id="a67e34496e"><path d="M 176.355469 38.8125 L 203.964844 38.8125 L 203.964844 87.375 L 176.355469 87.375 Z M 176.355469 38.8125 " clip-rule="nonzero"/></clipPath><clipPath id="a65aed7492"><path d="M 192.757812 64.203125 C 192.746094 56.371094 187.699219 50.746094 181.113281 49.976562 C 179.277344 49.761719 178.027344 48.535156 177.992188 46.917969 C 177.953125 45.175781 179.023438 43.910156 180.941406 43.652344 C 182.78125 43.40625 184.035156 42.492188 184.78125 40.816406 C 184.933594 40.472656 185.113281 40.132812 185.332031 39.824219 C 186.015625 38.851562 186.917969 38.589844 188.011719 39.03125 C 188.835938 39.367188 189.667969 39.6875 190.472656 40.074219 C 191.683594 40.65625 191.949219 41.410156 191.664062 42.730469 C 191.417969 43.871094 191.3125 45.046875 191.144531 46.203125 L 191.148438 46.375 C 192.351562 48.652344 193.910156 50.5 196.347656 51.292969 C 197.046875 51.519531 197.933594 51.199219 198.726562 51.074219 C 199.175781 51.003906 199.605469 50.8125 200.050781 50.710938 C 201.15625 50.457031 201.882812 50.773438 202.386719 51.808594 C 202.835938 52.726562 203.230469 53.675781 203.59375 54.632812 C 203.957031 55.582031 203.703125 56.378906 202.855469 56.972656 C 202.351562 57.328125 201.792969 57.613281 201.253906 57.925781 C 199.855469 58.722656 199.027344 59.855469 199.0625 61.53125 C 199.085938 62.695312 199.035156 63.863281 199.113281 65.023438 C 199.191406 66.21875 199.898438 67.074219 200.875 67.703125 L 202.632812 68.710938 C 203.777344 69.417969 204.066406 70.203125 203.605469 71.464844 L 202.621094 73.859375 C 202.046875 75.113281 201.1875 75.476562 199.839844 75.132812 C 198.980469 74.914062 198.117188 74.683594 197.238281 74.578125 C 196.246094 74.457031 195.378906 74.859375 194.664062 75.542969 C 193.859375 76.3125 193.0625 77.085938 192.308594 77.902344 C 191.277344 79.019531 190.917969 80.308594 191.441406 81.792969 L 191.886719 83.347656 C 192.183594 84.566406 191.863281 85.34375 190.746094 85.898438 C 189.851562 86.339844 188.929688 86.734375 187.988281 87.066406 C 186.945312 87.433594 186.152344 87.128906 185.542969 86.191406 L 184.46875 84.378906 C 183.675781 83.160156 182.566406 82.523438 181.078125 82.519531 C 180.25 82.515625 179.363281 82.554688 178.609375 82.289062 C 176.941406 81.703125 176.183594 80.1875 176.523438 78.539062 C 176.808594 77.15625 178.148438 76.082031 179.769531 76.132812 C 182.636719 76.226562 185.160156 75.320312 187.40625 73.640625 C 190.949219 70.984375 192.691406 67.378906 192.75 64.207031 " clip-rule="nonzero"/></clipPath><clipPath id="89e8d6a70c"><path d="M 158.488281 37.023438 L 181.226562 37.023438 L 181.226562 90.785156 L 158.488281 90.785156 Z M 158.488281 37.023438 " clip-rule="nonzero"/></clipPath><clipPath id="d1184a6575"><path d="M 175.699219 90.535156 C 174.320312 90.535156 172.929688 90.648438 171.5625 90.507812 C 169.484375 90.292969 167.847656 88.75 167.628906 86.679688 C 167.21875 82.75 165.855469 79.117188 164.363281 75.53125 C 163.230469 72.816406 161.984375 70.144531 160.671875 67.515625 C 158.878906 63.925781 158.265625 60.175781 158.585938 56.195312 C 159.3125 47.226562 166.125 39.546875 174.765625 37.570312 C 176.152344 37.25 177.597656 37.160156 179.023438 37.042969 C 179.855469 36.972656 180.574219 37.292969 180.960938 38.101562 C 181.292969 38.796875 181.277344 39.542969 180.738281 40.0625 C 180.355469 40.433594 179.730469 40.714844 179.195312 40.742188 C 175.527344 40.925781 172.191406 42.003906 169.265625 44.253906 C 165.84375 46.886719 163.550781 50.28125 162.617188 54.519531 C 161.761719 58.425781 162.15625 62.207031 164.023438 65.785156 C 166.730469 70.964844 169 76.328125 170.582031 81.960938 C 170.917969 83.152344 171.089844 84.390625 171.273438 85.617188 C 171.417969 86.578125 171.6875 86.894531 172.6875 86.898438 L 179.105469 86.910156 C 180.34375 86.917969 181.175781 87.683594 181.171875 88.789062 C 181.164062 89.824219 180.300781 90.617188 179.113281 90.636719 L 175.699219 90.640625 Z M 175.699219 90.535156 " clip-rule="nonzero"/></clipPath><clipPath id="f94873ef32"><path d="M 170.019531 53.105469 L 189.671875 53.105469 L 189.671875 72.921875 L 170.019531 72.921875 Z M 170.019531 53.105469 " clip-rule="nonzero"/></clipPath><clipPath id="157bc207aa"><path d="M 185.148438 62.976562 C 185.160156 60.066406 182.746094 57.652344 179.847656 57.675781 C 176.941406 57.699219 174.53125 60.105469 174.546875 63.011719 C 174.5625 65.785156 176.667969 68.386719 179.925781 68.335938 C 183.445312 68.277344 185.285156 65.417969 185.148438 62.976562 M 187.199219 58.292969 C 187.234375 58.285156 187.414062 58.230469 187.601562 58.21875 C 188 58.191406 188.644531 58.03125 188.757812 58.207031 C 189.125 58.769531 189.359375 59.449219 189.5 60.113281 C 189.539062 60.292969 189.097656 60.628906 188.820312 60.8125 C 187.738281 61.53125 187.25 62.9375 187.828125 64.113281 C 188.035156 64.53125 188.5 64.855469 188.90625 65.132812 C 189.648438 65.640625 189.738281 65.925781 189.332031 66.921875 C 189.054688 67.597656 188.75 68.164062 187.84375 67.785156 C 186.152344 67.082031 183.898438 69.375 184.746094 71.023438 C 185.046875 71.609375 184.785156 72.027344 184.171875 72.304688 C 182.726562 72.957031 182.734375 72.976562 181.878906 71.648438 C 181.042969 70.351562 178.710938 70.4375 177.875 71.800781 C 177.175781 72.9375 177.113281 72.957031 175.882812 72.445312 C 174.925781 72.046875 174.800781 71.863281 175.125 70.839844 C 175.476562 69.726562 174.886719 69.058594 174.171875 68.378906 C 173.523438 67.757812 172.839844 67.488281 171.972656 67.886719 C 171.355469 68.171875 170.894531 68.019531 170.585938 67.367188 C 170.023438 66.183594 170.035156 65.777344 170.738281 65.3125 C 172.007812 64.46875 172.296875 63.707031 172.011719 62.246094 C 171.871094 61.507812 171.378906 61.164062 170.785156 60.855469 C 170.0625 60.476562 169.988281 60.132812 170.363281 59.164062 C 170.753906 58.15625 170.984375 58.003906 171.8125 58.210938 C 173.199219 58.554688 174.804688 57.675781 175.148438 56.308594 C 175.234375 55.953125 175.105469 55.507812 174.984375 55.136719 C 174.746094 54.414062 174.878906 53.921875 175.652344 53.6875 L 176.324219 53.398438 C 176.863281 53.140625 177.226562 53.300781 177.535156 53.808594 C 178.382812 55.203125 179.179688 55.585938 180.703125 55.144531 C 181.175781 55.011719 181.605469 54.503906 181.910156 54.066406 C 182.542969 53.160156 182.75 53.0625 183.835938 53.558594 C 184.777344 53.984375 184.910156 54.285156 184.601562 55.261719 C 184.191406 56.5625 185.617188 58.339844 187.195312 58.292969 " clip-rule="nonzero"/></clipPath><clipPath id="21361f251d"><path d="M 153.289062 29.878906 L 162.222656 29.878906 L 162.222656 38.972656 L 153.289062 38.972656 Z M 153.289062 29.878906 " clip-rule="nonzero"/></clipPath><clipPath id="9684b3022b"><path d="M 162.210938 37.210938 C 162.1875 38.460938 160.835938 39.25 159.953125 38.738281 L 159.3125 38.246094 C 157.503906 36.460938 155.691406 34.675781 153.90625 32.863281 C 152.984375 31.925781 153.121094 30.796875 154.148438 30.207031 C 154.78125 29.839844 155.375 29.941406 155.859375 30.417969 L 161.765625 36.332031 C 162.027344 36.601562 162.121094 37.035156 162.207031 37.214844 " clip-rule="nonzero"/></clipPath><clipPath id="ee8109463f"><path d="M 197 29.878906 L 205.914062 29.878906 L 205.914062 39.136719 L 197 39.136719 Z M 197 29.878906 " clip-rule="nonzero"/></clipPath><clipPath id="a82728e437"><path d="M 198.402344 39.125 C 197.925781 38.679688 197.347656 38.363281 197.144531 37.882812 C 196.980469 37.484375 197.082031 36.753906 197.363281 36.421875 C 198.269531 35.347656 199.308594 34.386719 200.304688 33.390625 L 203.078125 30.648438 C 203.96875 29.8125 204.730469 29.789062 205.414062 30.5 C 206.070312 31.179688 206.035156 32.078125 205.246094 32.875 L 199.949219 38.152344 C 199.558594 38.527344 199.015625 38.746094 198.402344 39.125 " clip-rule="nonzero"/></clipPath><clipPath id="61482dd4f3"><path d="M 204.777344 54.566406 L 216.148438 54.566406 L 216.148438 57.976562 L 204.777344 57.976562 Z M 204.777344 54.566406 " clip-rule="nonzero"/></clipPath><clipPath id="f7025fec05"><path d="M 208.039062 54.726562 C 207.800781 54.726562 207.5625 54.726562 207.324219 54.726562 L 206.269531 54.75 C 205.410156 54.855469 204.796875 55.550781 204.835938 56.335938 C 204.878906 57.21875 205.484375 57.808594 206.410156 57.816406 L 210.382812 57.824219 L 214.605469 57.816406 C 215.457031 57.808594 216.046875 57.253906 216.136719 56.453125 C 216.21875 55.730469 215.65625 54.980469 214.863281 54.808594 C 214.550781 54.742188 214.21875 54.734375 213.898438 54.734375 C 211.945312 54.726562 209.992188 54.726562 208.039062 54.726562 Z M 208.039062 54.726562 " clip-rule="nonzero"/></clipPath><clipPath id="ee9079ba96"><path d="M 177.976562 21.269531 L 181.226562 21.269531 L 181.226562 32.476562 L 177.976562 32.476562 Z M 177.976562 21.269531 " clip-rule="nonzero"/></clipPath><clipPath id="5ec62e8b4c"><path d="M 179.683594 21.269531 C 179.304688 21.273438 178.894531 21.378906 178.625 21.5625 C 178.277344 21.796875 178.050781 22.429688 178.039062 22.890625 C 177.980469 25.484375 178 28.082031 178 30.675781 L 178.0625 31.074219 C 178.257812 31.964844 178.792969 32.453125 179.566406 32.453125 C 179.628906 32.453125 179.691406 32.449219 179.753906 32.445312 C 180.550781 32.371094 181.074219 31.742188 181.082031 30.808594 L 181.085938 27 L 181.09375 27 C 181.09375 25.515625 181.160156 24.027344 181.054688 22.546875 C 181.023438 22.109375 180.585938 21.5 180.191406 21.351562 C 180.046875 21.296875 179.871094 21.273438 179.691406 21.269531 Z M 179.683594 21.269531 " clip-rule="nonzero"/></clipPath></defs><g clip-path="url(#615dd7882b)"><path fill="#072fbb" d="M 180 1.199219 C 81.226562 1.199219 1.199219 81.300781 1.199219 180 C 1.199219 278.699219 81.226562 358.796875 180 358.796875 C 278.769531 358.796875 358.796875 278.699219 358.796875 180 C 358.796875 81.300781 278.769531 1.199219 180 1.199219 Z M 180 347.480469 C 87.5 347.480469 12.519531 272.5 12.519531 180 C 12.519531 87.5 87.5 12.519531 180 12.519531 C 272.5 12.519531 347.480469 87.5 347.480469 180 C 347.480469 272.5 272.5 347.480469 180 347.480469 Z M 180 347.480469 " fill-opacity="1" fill-rule="nonzero"/></g><g mask="url(#c9e9219134)"><g transform="matrix(1, 0, 0, 1, 12, 12)"><g clip-path="url(#a5e3c04a1b)"><g clip-path="url(#13133f75e0)"><path fill="#072fbb" d="M 168 0.285156 C 260.621094 0.285156 335.710938 75.375 335.710938 168 C 335.710938 260.621094 260.621094 335.710938 168 335.710938 C 75.375 335.710938 0.285156 260.621094 0.285156 168 C 0.285156 75.375 75.375 0.285156 168 0.285156 Z M 168 0.285156 " fill-opacity="1" fill-rule="evenodd"/></g></g></g></g><g fill="#072fbb" fill-opacity="1"><g transform="translate(25.610351, 264.592659)"><g><path d="M 29.75 -169.234375 L 72.390625 -169 C 94.679688 -169 114.28125 -160.96875 131.1875 -144.90625 C 148.09375 -128.84375 156.546875 -109.09375 156.546875 -85.65625 C 156.546875 -62.21875 148.285156 -42.117188 131.765625 -25.359375 C 115.242188 -8.609375 95.222656 -0.234375 71.703125 -0.234375 L 29.515625 -0.234375 C 20.140625 -0.234375 14.296875 -2.15625 11.984375 -6 C 10.140625 -9.226562 9.21875 -14.144531 9.21875 -20.75 L 9.21875 -148.9375 C 9.21875 -152.632812 9.332031 -155.328125 9.5625 -157.015625 C 9.800781 -158.703125 10.535156 -160.695312 11.765625 -163 C 13.910156 -167.15625 19.90625 -169.234375 29.75 -169.234375 Z M 72.390625 -41.046875 C 83.460938 -41.046875 93.457031 -45.15625 102.375 -53.375 C 111.289062 -61.59375 115.75 -71.925781 115.75 -84.375 C 115.75 -96.832031 111.40625 -107.25 102.71875 -115.625 C 94.03125 -124 83.847656 -128.1875 72.171875 -128.1875 L 50.03125 -128.1875 L 50.03125 -41.046875 Z M 72.390625 -41.046875 "/></g></g></g><g clip-path="url(#04d93b6c40)"><g clip-path="url(#cd8d0375a1)"><path fill="#343434" d="M 143.039062 54.714844 L 154.339844 54.714844 L 154.339844 57.835938 L 143.039062 57.835938 Z M 143.039062 54.714844 " fill-opacity="1" fill-rule="nonzero"/></g></g><g clip-path="url(#3a97ad0f83)"><g clip-path="url(#497f23c1a3)"><path fill="#343434" d="M 168.226562 93.890625 L 190.957031 93.890625 L 190.957031 97.648438 L 168.226562 97.648438 Z M 168.226562 93.890625 " fill-opacity="1" fill-rule="nonzero"/></g></g><g clip-path="url(#14fdc176bf)"><g clip-path="url(#afd4d559d0)"><path fill="#343434" d="M 173.210938 100.410156 L 185.96875 100.410156 L 185.96875 104.152344 L 173.210938 104.152344 Z M 173.210938 100.410156 " fill-opacity="1" fill-rule="nonzero"/></g></g><g clip-path="url(#a67e34496e)"><g clip-path="url(#a65aed7492)"><path fill="#072fbb" d="M 152.476562 20.457031 L 216.960938 20.457031 L 216.960938 91.4375 L 152.476562 91.4375 Z M 152.476562 20.457031 " fill-opacity="1" fill-rule="nonzero"/></g></g><g clip-path="url(#89e8d6a70c)"><g clip-path="url(#d1184a6575)"><path fill="#072fbb" d="M 152.476562 20.457031 L 216.960938 20.457031 L 216.960938 91.4375 L 152.476562 91.4375 Z M 152.476562 20.457031 " fill-opacity="1" fill-rule="nonzero"/></g></g><g clip-path="url(#f94873ef32)"><g clip-path="url(#157bc207aa)"><path fill="#343434" d="M 152.476562 20.457031 L 216.960938 20.457031 L 216.960938 91.4375 L 152.476562 91.4375 Z M 152.476562 20.457031 " fill-opacity="1" fill-rule="nonzero"/></g></g><g clip-path="url(#21361f251d)"><g clip-path="url(#9684b3022b)"><path fill="#343434" d="M 152.476562 20.457031 L 216.960938 20.457031 L 216.960938 91.4375 L 152.476562 91.4375 Z M 152.476562 20.457031 " fill-opacity="1" fill-rule="nonzero"/></g></g><g clip-path="url(#ee8109463f)"><g clip-path="url(#a82728e437)"><path fill="#343434" d="M 152.476562 20.457031 L 216.960938 20.457031 L 216.960938 91.4375 L 152.476562 91.4375 Z M 152.476562 20.457031 " fill-opacity="1" fill-rule="nonzero"/></g></g><g clip-path="url(#61482dd4f3)"><g clip-path="url(#f7025fec05)"><path fill="#343434" d="M 152.476562 20.457031 L 216.960938 20.457031 L 216.960938 91.4375 L 152.476562 91.4375 Z M 152.476562 20.457031 " fill-opacity="1" fill-rule="nonzero"/></g></g><g clip-path="url(#ee9079ba96)"><g clip-path="url(#5ec62e8b4c)"><path fill="#343434" d="M 152.476562 20.457031 L 216.960938 20.457031 L 216.960938 91.4375 L 152.476562 91.4375 Z M 152.476562 20.457031 " fill-opacity="1" fill-rule="nonzero"/></g></g><g fill="#072fbb" fill-opacity="1"><g transform="translate(185.665773, 264.592659)"><g><path d="M 121.046875 -169 C 124.578125 -169 127.226562 -168.882812 129 -168.65625 C 130.769531 -168.425781 132.769531 -167.695312 135 -166.46875 C 137.226562 -165.238281 138.800781 -163.160156 139.71875 -160.234375 C 140.644531 -157.316406 141.109375 -153.398438 141.109375 -148.484375 C 141.109375 -143.566406 140.644531 -139.644531 139.71875 -136.71875 C 138.800781 -133.800781 137.1875 -131.765625 134.875 -130.609375 C 132.570312 -129.460938 130.535156 -128.769531 128.765625 -128.53125 C 127.003906 -128.300781 124.273438 -128.1875 120.578125 -128.1875 L 50.03125 -128.1875 L 50.03125 -104.90625 L 95.453125 -104.90625 C 99.140625 -104.90625 101.867188 -104.789062 103.640625 -104.5625 C 105.410156 -104.332031 107.445312 -103.601562 109.75 -102.375 C 113.75 -100.0625 115.75 -93.988281 115.75 -84.15625 C 115.75 -73.394531 112.828125 -67.015625 106.984375 -65.015625 C 104.523438 -64.242188 100.601562 -63.859375 95.21875 -63.859375 L 50.03125 -63.859375 L 50.03125 -20.296875 C 50.03125 -16.597656 49.914062 -13.90625 49.6875 -12.21875 C 49.457031 -10.53125 48.726562 -8.53125 47.5 -6.21875 C 45.34375 -2.070312 39.347656 0 29.515625 0 C 18.753906 0 12.453125 -2.921875 10.609375 -8.765625 C 9.679688 -11.222656 9.21875 -15.140625 9.21875 -20.515625 L 9.21875 -148.71875 C 9.21875 -156.550781 10.675781 -161.890625 13.59375 -164.734375 C 16.519531 -167.578125 22.054688 -169 30.203125 -169 Z M 121.046875 -169 "/></g></g></g><g fill="#343434" fill-opacity="1"><g transform="translate(139.803804, 303.119976)"><g><path d="M 6.671875 -9.8125 L 10.5625 -1.765625 C 10.71875 -1.441406 10.796875 -1.195312 10.796875 -1.03125 C 10.796875 -0.6875 10.519531 -0.375 9.96875 -0.09375 C 9.644531 0.0625 9.390625 0.140625 9.203125 0.140625 C 9.015625 0.140625 8.859375 0.0976562 8.734375 0.015625 C 8.617188 -0.0664062 8.535156 -0.15625 8.484375 -0.25 C 8.429688 -0.351562 8.351562 -0.5 8.25 -0.6875 L 7.5 -2.25 L 3.515625 -2.25 L 2.765625 -0.6875 C 2.671875 -0.5 2.597656 -0.359375 2.546875 -0.265625 C 2.492188 -0.179688 2.40625 -0.09375 2.28125 0 C 2.164062 0.0820312 2.015625 0.125 1.828125 0.125 C 1.640625 0.125 1.378906 0.046875 1.046875 -0.109375 C 0.492188 -0.378906 0.21875 -0.6875 0.21875 -1.03125 C 0.21875 -1.195312 0.300781 -1.441406 0.46875 -1.765625 L 4.34375 -9.828125 C 4.457031 -10.046875 4.617188 -10.222656 4.828125 -10.359375 C 5.046875 -10.492188 5.273438 -10.5625 5.515625 -10.5625 C 6.035156 -10.5625 6.421875 -10.3125 6.671875 -9.8125 Z M 5.5 -6.359375 L 4.546875 -4.375 L 6.46875 -4.375 Z M 5.5 -6.359375 "/></g></g></g><g fill="#343434" fill-opacity="1"><g transform="translate(151.683795, 303.119976)"><g><path d="M 4.796875 -7.59375 C 5.753906 -7.59375 6.550781 -7.222656 7.1875 -6.484375 C 7.832031 -5.753906 8.15625 -4.859375 8.15625 -3.796875 L 8.15625 -1.265625 C 8.15625 -1.046875 8.144531 -0.878906 8.125 -0.765625 C 8.113281 -0.660156 8.078125 -0.539062 8.015625 -0.40625 C 7.878906 -0.144531 7.503906 -0.015625 6.890625 -0.015625 C 6.203125 -0.015625 5.804688 -0.191406 5.703125 -0.546875 C 5.648438 -0.710938 5.625 -0.957031 5.625 -1.28125 L 5.625 -3.8125 C 5.625 -4.207031 5.507812 -4.515625 5.28125 -4.734375 C 5.050781 -4.960938 4.742188 -5.078125 4.359375 -5.078125 C 3.984375 -5.078125 3.675781 -4.957031 3.4375 -4.71875 C 3.207031 -4.488281 3.09375 -4.1875 3.09375 -3.8125 L 3.09375 -1.265625 C 3.09375 -1.046875 3.082031 -0.878906 3.0625 -0.765625 C 3.050781 -0.660156 3.007812 -0.539062 2.9375 -0.40625 C 2.8125 -0.144531 2.441406 -0.015625 1.828125 -0.015625 C 1.222656 -0.015625 0.851562 -0.144531 0.71875 -0.40625 C 0.65625 -0.550781 0.613281 -0.675781 0.59375 -0.78125 C 0.582031 -0.894531 0.578125 -1.0625 0.578125 -1.28125 L 0.578125 -6.375 C 0.578125 -6.59375 0.582031 -6.753906 0.59375 -6.859375 C 0.613281 -6.972656 0.660156 -7.097656 0.734375 -7.234375 C 0.867188 -7.472656 1.238281 -7.59375 1.84375 -7.59375 C 2.425781 -7.59375 2.785156 -7.484375 2.921875 -7.265625 C 3.015625 -7.097656 3.0625 -6.898438 3.0625 -6.671875 C 3.101562 -6.734375 3.191406 -6.828125 3.328125 -6.953125 C 3.460938 -7.078125 3.59375 -7.179688 3.71875 -7.265625 C 4.039062 -7.484375 4.398438 -7.59375 4.796875 -7.59375 Z M 4.796875 -7.59375 "/></g></g></g><g fill="#343434" fill-opacity="1"><g transform="translate(161.274192, 303.119976)"><g><path d="M 5.5 -6.78125 C 5.5625 -7.320312 5.941406 -7.59375 6.640625 -7.59375 C 7.015625 -7.59375 7.289062 -7.5625 7.46875 -7.5 C 7.65625 -7.445312 7.785156 -7.347656 7.859375 -7.203125 C 7.929688 -7.054688 7.972656 -6.925781 7.984375 -6.8125 C 8.003906 -6.707031 8.015625 -6.546875 8.015625 -6.328125 L 8.015625 -1.28125 C 8.015625 -1.0625 8.003906 -0.894531 7.984375 -0.78125 C 7.972656 -0.675781 7.929688 -0.550781 7.859375 -0.40625 C 7.734375 -0.15625 7.40625 -0.03125 6.875 -0.03125 C 6.351562 -0.03125 6.003906 -0.09375 5.828125 -0.21875 C 5.648438 -0.351562 5.546875 -0.546875 5.515625 -0.796875 C 5.160156 -0.285156 4.566406 -0.03125 3.734375 -0.03125 C 2.910156 -0.03125 2.140625 -0.410156 1.421875 -1.171875 C 0.710938 -1.929688 0.359375 -2.8125 0.359375 -3.8125 C 0.359375 -4.8125 0.710938 -5.6875 1.421875 -6.4375 C 2.140625 -7.195312 2.925781 -7.578125 3.78125 -7.578125 C 4.113281 -7.578125 4.410156 -7.519531 4.671875 -7.40625 C 4.941406 -7.289062 5.128906 -7.179688 5.234375 -7.078125 C 5.347656 -6.972656 5.4375 -6.875 5.5 -6.78125 Z M 2.875 -3.78125 C 2.875 -3.46875 3 -3.179688 3.25 -2.921875 C 3.5 -2.671875 3.800781 -2.546875 4.15625 -2.546875 C 4.519531 -2.546875 4.816406 -2.675781 5.046875 -2.9375 C 5.285156 -3.195312 5.40625 -3.484375 5.40625 -3.796875 C 5.40625 -4.109375 5.289062 -4.398438 5.0625 -4.671875 C 4.832031 -4.941406 4.53125 -5.078125 4.15625 -5.078125 C 3.78125 -5.078125 3.472656 -4.941406 3.234375 -4.671875 C 2.992188 -4.398438 2.875 -4.101562 2.875 -3.78125 Z M 2.875 -3.78125 "/></g></g></g><g fill="#343434" fill-opacity="1"><g transform="translate(170.720579, 303.119976)"><g><path d="M 0.578125 -9.890625 C 0.578125 -10.117188 0.582031 -10.285156 0.59375 -10.390625 C 0.613281 -10.503906 0.65625 -10.632812 0.71875 -10.78125 C 0.851562 -11.039062 1.226562 -11.171875 1.84375 -11.171875 C 2.425781 -11.171875 2.789062 -11.039062 2.9375 -10.78125 C 3.007812 -10.632812 3.050781 -10.503906 3.0625 -10.390625 C 3.082031 -10.273438 3.09375 -10.101562 3.09375 -9.875 L 3.09375 -3.21875 C 3.09375 -2.863281 3.117188 -2.640625 3.171875 -2.546875 C 3.234375 -2.460938 3.363281 -2.421875 3.5625 -2.421875 C 3.757812 -2.421875 3.890625 -2.410156 3.953125 -2.390625 C 4.023438 -2.378906 4.109375 -2.34375 4.203125 -2.28125 C 4.398438 -2.15625 4.5 -1.8125 4.5 -1.25 C 4.5 -0.644531 4.398438 -0.273438 4.203125 -0.140625 C 3.953125 0.0234375 3.359375 0.0507812 2.421875 -0.0625 C 1.679688 -0.15625 1.203125 -0.398438 0.984375 -0.796875 C 0.710938 -1.265625 0.578125 -2.015625 0.578125 -3.046875 Z M 0.578125 -9.890625 "/></g></g></g><g fill="#343434" fill-opacity="1"><g transform="translate(176.293374, 303.119976)"><g><path d="M 7.640625 -7.5 C 8.203125 -7.25 8.484375 -6.945312 8.484375 -6.59375 C 8.484375 -6.425781 8.441406 -6.265625 8.359375 -6.109375 C 8.285156 -5.953125 8.25 -5.867188 8.25 -5.859375 L 4.484375 2.578125 C 4.398438 2.765625 4.332031 2.90625 4.28125 3 C 4.226562 3.09375 4.144531 3.179688 4.03125 3.265625 C 3.914062 3.359375 3.769531 3.40625 3.59375 3.40625 C 3.425781 3.40625 3.175781 3.332031 2.84375 3.1875 C 2.269531 2.9375 1.984375 2.640625 1.984375 2.296875 C 1.984375 2.054688 2.445312 0.953125 3.375 -1.015625 L 0.5 -5.828125 C 0.3125 -6.148438 0.21875 -6.390625 0.21875 -6.546875 C 0.21875 -6.847656 0.476562 -7.15625 1 -7.46875 C 1.320312 -7.65625 1.570312 -7.75 1.75 -7.75 C 1.9375 -7.75 2.085938 -7.707031 2.203125 -7.625 C 2.316406 -7.550781 2.398438 -7.472656 2.453125 -7.390625 C 2.503906 -7.316406 2.769531 -6.875 3.25 -6.0625 C 3.726562 -5.25 4.179688 -4.488281 4.609375 -3.78125 C 4.660156 -3.9375 4.921875 -4.53125 5.390625 -5.5625 C 5.859375 -6.59375 6.109375 -7.140625 6.140625 -7.203125 C 6.171875 -7.273438 6.226562 -7.363281 6.3125 -7.46875 C 6.4375 -7.625 6.609375 -7.703125 6.828125 -7.703125 C 7.054688 -7.703125 7.328125 -7.632812 7.640625 -7.5 Z M 7.640625 -7.5 "/></g></g></g><g fill="#343434" fill-opacity="1"><g transform="translate(185.854964, 303.119976)"><g><path d="M 4.984375 -5.046875 L 4.046875 -5.09375 L 4.046875 -3.109375 C 4.046875 -2.847656 4.085938 -2.660156 4.171875 -2.546875 C 4.253906 -2.429688 4.40625 -2.375 4.625 -2.375 C 4.851562 -2.375 5.023438 -2.363281 5.140625 -2.34375 C 5.265625 -2.332031 5.394531 -2.289062 5.53125 -2.21875 C 5.75 -2.09375 5.859375 -1.769531 5.859375 -1.25 C 5.859375 -0.644531 5.722656 -0.273438 5.453125 -0.140625 C 5.316406 -0.078125 5.191406 -0.0351562 5.078125 -0.015625 C 4.960938 -0.00390625 4.800781 0 4.59375 0 C 3.59375 0 2.832031 -0.222656 2.3125 -0.671875 C 1.800781 -1.128906 1.546875 -1.894531 1.546875 -2.96875 L 1.546875 -5.09375 C 1.359375 -5.070312 1.160156 -5.0625 0.953125 -5.0625 C 0.742188 -5.0625 0.566406 -5.140625 0.421875 -5.296875 C 0.285156 -5.460938 0.21875 -5.742188 0.21875 -6.140625 C 0.21875 -6.535156 0.238281 -6.820312 0.28125 -7 C 0.332031 -7.175781 0.398438 -7.300781 0.484375 -7.375 C 0.640625 -7.5 0.832031 -7.5625 1.0625 -7.5625 L 1.546875 -7.5 L 1.546875 -8.984375 C 1.546875 -9.210938 1.550781 -9.378906 1.5625 -9.484375 C 1.570312 -9.585938 1.617188 -9.703125 1.703125 -9.828125 C 1.828125 -10.066406 2.195312 -10.1875 2.8125 -10.1875 C 3.457031 -10.1875 3.84375 -10.007812 3.96875 -9.65625 C 4.019531 -9.5 4.046875 -9.253906 4.046875 -8.921875 L 4.046875 -7.5 C 4.472656 -7.539062 4.789062 -7.5625 5 -7.5625 C 5.21875 -7.5625 5.378906 -7.550781 5.484375 -7.53125 C 5.597656 -7.519531 5.726562 -7.476562 5.875 -7.40625 C 6.125 -7.28125 6.25 -6.910156 6.25 -6.296875 C 6.25 -5.691406 6.117188 -5.320312 5.859375 -5.1875 C 5.710938 -5.113281 5.582031 -5.070312 5.46875 -5.0625 C 5.363281 -5.050781 5.203125 -5.046875 4.984375 -5.046875 Z M 4.984375 -5.046875 "/></g></g></g><g fill="#343434" fill-opacity="1"><g transform="translate(193.184561, 303.119976)"><g><path d="M 0.578125 -6.328125 C 0.578125 -6.546875 0.582031 -6.707031 0.59375 -6.8125 C 0.613281 -6.925781 0.65625 -7.054688 0.71875 -7.203125 C 0.851562 -7.453125 1.226562 -7.578125 1.84375 -7.578125 C 2.300781 -7.578125 2.628906 -7.492188 2.828125 -7.328125 C 2.984375 -7.191406 3.066406 -6.988281 3.078125 -6.71875 C 3.085938 -6.613281 3.09375 -6.472656 3.09375 -6.296875 L 3.09375 -1.25 C 3.09375 -1.03125 3.082031 -0.863281 3.0625 -0.75 C 3.050781 -0.644531 3.007812 -0.519531 2.9375 -0.375 C 2.8125 -0.125 2.441406 0 1.828125 0 C 1.222656 0 0.851562 -0.128906 0.71875 -0.390625 C 0.65625 -0.535156 0.613281 -0.660156 0.59375 -0.765625 C 0.582031 -0.867188 0.578125 -1.035156 0.578125 -1.265625 Z M 2.9375 -8.984375 C 2.875 -8.847656 2.75 -8.75 2.5625 -8.6875 C 2.382812 -8.632812 2.144531 -8.609375 1.84375 -8.609375 C 1.539062 -8.609375 1.296875 -8.632812 1.109375 -8.6875 C 0.921875 -8.75 0.789062 -8.851562 0.71875 -9 C 0.65625 -9.144531 0.613281 -9.269531 0.59375 -9.375 C 0.582031 -9.488281 0.578125 -9.65625 0.578125 -9.875 C 0.578125 -10.101562 0.582031 -10.269531 0.59375 -10.375 C 0.613281 -10.488281 0.65625 -10.613281 0.71875 -10.75 C 0.851562 -11.007812 1.226562 -11.140625 1.84375 -11.140625 C 2.445312 -11.140625 2.8125 -11.007812 2.9375 -10.75 C 3.007812 -10.601562 3.050781 -10.472656 3.0625 -10.359375 C 3.082031 -10.253906 3.09375 -10.085938 3.09375 -9.859375 C 3.09375 -9.640625 3.082031 -9.472656 3.0625 -9.359375 C 3.050781 -9.253906 3.007812 -9.128906 2.9375 -8.984375 Z M 2.9375 -8.984375 "/></g></g></g><g fill="#343434" fill-opacity="1"><g transform="translate(197.720552, 303.119976)"><g><path d="M 2.953125 -3.796875 C 2.953125 -3.390625 3.085938 -3.070312 3.359375 -2.84375 C 3.628906 -2.613281 3.914062 -2.5 4.21875 -2.5 C 4.519531 -2.5 4.800781 -2.585938 5.0625 -2.765625 C 5.320312 -2.953125 5.535156 -3.046875 5.703125 -3.046875 C 5.992188 -3.046875 6.34375 -2.789062 6.75 -2.28125 C 6.976562 -2 7.09375 -1.75 7.09375 -1.53125 C 7.09375 -1.164062 6.828125 -0.820312 6.296875 -0.5 C 5.742188 -0.113281 5.070312 0.078125 4.28125 0.078125 C 3.382812 0.078125 2.523438 -0.242188 1.703125 -0.890625 C 1.304688 -1.203125 0.984375 -1.613281 0.734375 -2.125 C 0.484375 -2.632812 0.359375 -3.195312 0.359375 -3.8125 C 0.359375 -4.4375 0.484375 -5 0.734375 -5.5 C 0.984375 -6.007812 1.304688 -6.421875 1.703125 -6.734375 C 2.492188 -7.359375 3.34375 -7.671875 4.25 -7.671875 C 4.613281 -7.671875 4.96875 -7.617188 5.3125 -7.515625 C 5.65625 -7.421875 5.910156 -7.328125 6.078125 -7.234375 L 6.3125 -7.09375 C 6.476562 -6.976562 6.613281 -6.882812 6.71875 -6.8125 C 6.96875 -6.625 7.09375 -6.40625 7.09375 -6.15625 C 7.09375 -5.914062 6.988281 -5.640625 6.78125 -5.328125 C 6.4375 -4.796875 6.109375 -4.53125 5.796875 -4.53125 C 5.609375 -4.53125 5.347656 -4.640625 5.015625 -4.859375 C 4.835938 -5.015625 4.585938 -5.09375 4.265625 -5.09375 C 3.941406 -5.09375 3.640625 -4.976562 3.359375 -4.75 C 3.085938 -4.519531 2.953125 -4.203125 2.953125 -3.796875 Z M 2.953125 -3.796875 "/></g></g></g><g fill="#343434" fill-opacity="1"><g transform="translate(206.029347, 303.119976)"><g><path d="M 5.5 -6.78125 C 5.5625 -7.320312 5.941406 -7.59375 6.640625 -7.59375 C 7.015625 -7.59375 7.289062 -7.5625 7.46875 -7.5 C 7.65625 -7.445312 7.785156 -7.347656 7.859375 -7.203125 C 7.929688 -7.054688 7.972656 -6.925781 7.984375 -6.8125 C 8.003906 -6.707031 8.015625 -6.546875 8.015625 -6.328125 L 8.015625 -1.28125 C 8.015625 -1.0625 8.003906 -0.894531 7.984375 -0.78125 C 7.972656 -0.675781 7.929688 -0.550781 7.859375 -0.40625 C 7.734375 -0.15625 7.40625 -0.03125 6.875 -0.03125 C 6.351562 -0.03125 6.003906 -0.09375 5.828125 -0.21875 C 5.648438 -0.351562 5.546875 -0.546875 5.515625 -0.796875 C 5.160156 -0.285156 4.566406 -0.03125 3.734375 -0.03125 C 2.910156 -0.03125 2.140625 -0.410156 1.421875 -1.171875 C 0.710938 -1.929688 0.359375 -2.8125 0.359375 -3.8125 C 0.359375 -4.8125 0.710938 -5.6875 1.421875 -6.4375 C 2.140625 -7.195312 2.925781 -7.578125 3.78125 -7.578125 C 4.113281 -7.578125 4.410156 -7.519531 4.671875 -7.40625 C 4.941406 -7.289062 5.128906 -7.179688 5.234375 -7.078125 C 5.347656 -6.972656 5.4375 -6.875 5.5 -6.78125 Z M 2.875 -3.78125 C 2.875 -3.46875 3 -3.179688 3.25 -2.921875 C 3.5 -2.671875 3.800781 -2.546875 4.15625 -2.546875 C 4.519531 -2.546875 4.816406 -2.675781 5.046875 -2.9375 C 5.285156 -3.195312 5.40625 -3.484375 5.40625 -3.796875 C 5.40625 -4.109375 5.289062 -4.398438 5.0625 -4.671875 C 4.832031 -4.941406 4.53125 -5.078125 4.15625 -5.078125 C 3.78125 -5.078125 3.472656 -4.941406 3.234375 -4.671875 C 2.992188 -4.398438 2.875 -4.101562 2.875 -3.78125 Z M 2.875 -3.78125 "/></g></g></g><g fill="#343434" fill-opacity="1"><g transform="translate(215.475732, 303.119976)"><g><path d="M 0.578125 -9.890625 C 0.578125 -10.117188 0.582031 -10.285156 0.59375 -10.390625 C 0.613281 -10.503906 0.65625 -10.632812 0.71875 -10.78125 C 0.851562 -11.039062 1.226562 -11.171875 1.84375 -11.171875 C 2.425781 -11.171875 2.789062 -11.039062 2.9375 -10.78125 C 3.007812 -10.632812 3.050781 -10.503906 3.0625 -10.390625 C 3.082031 -10.273438 3.09375 -10.101562 3.09375 -9.875 L 3.09375 -3.21875 C 3.09375 -2.863281 3.117188 -2.640625 3.171875 -2.546875 C 3.234375 -2.460938 3.363281 -2.421875 3.5625 -2.421875 C 3.757812 -2.421875 3.890625 -2.410156 3.953125 -2.390625 C 4.023438 -2.378906 4.109375 -2.34375 4.203125 -2.28125 C 4.398438 -2.15625 4.5 -1.8125 4.5 -1.25 C 4.5 -0.644531 4.398438 -0.273438 4.203125 -0.140625 C 3.953125 0.0234375 3.359375 0.0507812 2.421875 -0.0625 C 1.679688 -0.15625 1.203125 -0.398438 0.984375 -0.796875 C 0.710938 -1.265625 0.578125 -2.015625 0.578125 -3.046875 Z M 0.578125 -9.890625 "/></g></g></g><g fill="#343434" fill-opacity="1"><g transform="translate(161.457445, 320.399946)"><g><path d="M 3.125 -2.546875 L 7.5625 -2.546875 C 7.78125 -2.546875 7.941406 -2.535156 8.046875 -2.515625 C 8.160156 -2.503906 8.289062 -2.460938 8.4375 -2.390625 C 8.695312 -2.253906 8.828125 -1.878906 8.828125 -1.265625 C 8.828125 -0.597656 8.648438 -0.207031 8.296875 -0.09375 C 8.128906 -0.03125 7.878906 0 7.546875 0 L 1.84375 0 C 1.164062 0 0.769531 -0.179688 0.65625 -0.546875 C 0.601562 -0.703125 0.578125 -0.945312 0.578125 -1.28125 L 0.578125 -9.296875 C 0.578125 -9.785156 0.664062 -10.117188 0.84375 -10.296875 C 1.03125 -10.472656 1.378906 -10.5625 1.890625 -10.5625 L 7.5625 -10.5625 C 7.78125 -10.5625 7.941406 -10.550781 8.046875 -10.53125 C 8.160156 -10.519531 8.289062 -10.476562 8.4375 -10.40625 C 8.695312 -10.269531 8.828125 -9.894531 8.828125 -9.28125 C 8.828125 -8.601562 8.648438 -8.207031 8.296875 -8.09375 C 8.128906 -8.039062 7.878906 -8.015625 7.546875 -8.015625 L 3.125 -8.015625 L 3.125 -6.5625 L 5.984375 -6.5625 C 6.203125 -6.5625 6.363281 -6.550781 6.46875 -6.53125 C 6.582031 -6.519531 6.710938 -6.472656 6.859375 -6.390625 C 7.117188 -6.253906 7.25 -5.878906 7.25 -5.265625 C 7.25 -4.597656 7.066406 -4.207031 6.703125 -4.09375 C 6.535156 -4.03125 6.285156 -4 5.953125 -4 L 3.125 -4 Z M 3.125 -2.546875 "/></g></g></g><g fill="#343434" fill-opacity="1"><g transform="translate(171.50864, 320.399946)"><g><path d="M 5.671875 -10.75 C 5.742188 -10.894531 5.867188 -10.992188 6.046875 -11.046875 C 6.234375 -11.109375 6.476562 -11.140625 6.78125 -11.140625 C 7.082031 -11.140625 7.320312 -11.109375 7.5 -11.046875 C 7.6875 -10.992188 7.816406 -10.894531 7.890625 -10.75 C 7.960938 -10.601562 8.003906 -10.472656 8.015625 -10.359375 C 8.023438 -10.253906 8.03125 -10.09375 8.03125 -9.875 L 8.03125 -1.265625 C 8.03125 -1.046875 8.023438 -0.878906 8.015625 -0.765625 C 8.003906 -0.660156 7.957031 -0.539062 7.875 -0.40625 C 7.738281 -0.144531 7.332031 -0.015625 6.65625 -0.015625 C 5.988281 -0.015625 5.617188 -0.25 5.546875 -0.71875 C 5.140625 -0.257812 4.578125 -0.03125 3.859375 -0.03125 C 2.992188 -0.03125 2.207031 -0.40625 1.5 -1.15625 C 0.789062 -1.914062 0.4375 -2.796875 0.4375 -3.796875 C 0.4375 -4.796875 0.789062 -5.675781 1.5 -6.4375 C 2.21875 -7.195312 3.003906 -7.578125 3.859375 -7.578125 C 4.566406 -7.578125 5.117188 -7.335938 5.515625 -6.859375 L 5.515625 -9.875 C 5.515625 -10.101562 5.519531 -10.269531 5.53125 -10.375 C 5.550781 -10.488281 5.597656 -10.613281 5.671875 -10.75 Z M 3.328125 -2.921875 C 3.578125 -2.660156 3.878906 -2.53125 4.234375 -2.53125 C 4.585938 -2.53125 4.878906 -2.660156 5.109375 -2.921875 C 5.347656 -3.179688 5.46875 -3.46875 5.46875 -3.78125 C 5.46875 -4.09375 5.351562 -4.382812 5.125 -4.65625 C 4.90625 -4.925781 4.601562 -5.0625 4.21875 -5.0625 C 3.832031 -5.0625 3.523438 -4.925781 3.296875 -4.65625 C 3.066406 -4.394531 2.953125 -4.101562 2.953125 -3.78125 C 2.953125 -3.46875 3.078125 -3.179688 3.328125 -2.921875 Z M 3.328125 -2.921875 "/></g></g></g><g fill="#343434" fill-opacity="1"><g transform="translate(180.983833, 320.399946)"><g><path d="M 5.390625 -0.953125 C 5.023438 -0.472656 4.441406 -0.234375 3.640625 -0.234375 C 2.847656 -0.234375 2.101562 -0.597656 1.40625 -1.328125 C 0.707031 -2.066406 0.359375 -2.925781 0.359375 -3.90625 C 0.359375 -4.882812 0.707031 -5.742188 1.40625 -6.484375 C 2.113281 -7.222656 2.882812 -7.59375 3.71875 -7.59375 C 4.039062 -7.59375 4.335938 -7.53125 4.609375 -7.40625 C 4.878906 -7.289062 5.0625 -7.179688 5.15625 -7.078125 C 5.257812 -6.972656 5.34375 -6.878906 5.40625 -6.796875 C 5.4375 -7.066406 5.535156 -7.269531 5.703125 -7.40625 C 5.867188 -7.550781 6.140625 -7.625 6.515625 -7.625 C 6.890625 -7.625 7.160156 -7.59375 7.328125 -7.53125 C 7.503906 -7.476562 7.628906 -7.378906 7.703125 -7.234375 C 7.773438 -7.097656 7.816406 -6.976562 7.828125 -6.875 C 7.835938 -6.769531 7.84375 -6.601562 7.84375 -6.375 L 7.84375 -0.421875 C 7.84375 0.679688 7.457031 1.570312 6.6875 2.25 C 5.925781 2.925781 5.066406 3.265625 4.109375 3.265625 C 3.378906 3.265625 2.679688 3.085938 2.015625 2.734375 C 1.347656 2.378906 1.015625 2.054688 1.015625 1.765625 C 1.015625 1.390625 1.160156 1.0625 1.453125 0.78125 C 1.640625 0.570312 1.78125 0.429688 1.875 0.359375 C 1.976562 0.285156 2.097656 0.25 2.234375 0.25 C 2.367188 0.25 2.507812 0.304688 2.65625 0.421875 C 3.113281 0.773438 3.613281 0.953125 4.15625 0.953125 C 4.519531 0.953125 4.816406 0.804688 5.046875 0.515625 C 5.273438 0.234375 5.390625 -0.109375 5.390625 -0.515625 Z M 2.828125 -3.890625 C 2.828125 -3.578125 2.945312 -3.296875 3.1875 -3.046875 C 3.4375 -2.796875 3.734375 -2.671875 4.078125 -2.671875 C 4.429688 -2.671875 4.722656 -2.796875 4.953125 -3.046875 C 5.179688 -3.304688 5.296875 -3.585938 5.296875 -3.890625 C 5.296875 -4.191406 5.1875 -4.472656 4.96875 -4.734375 C 4.75 -5.003906 4.453125 -5.140625 4.078125 -5.140625 C 3.703125 -5.140625 3.398438 -5.007812 3.171875 -4.75 C 2.941406 -4.488281 2.828125 -4.203125 2.828125 -3.890625 Z M 2.828125 -3.890625 "/></g></g></g><g fill="#343434" fill-opacity="1"><g transform="translate(190.271818, 320.399946)"><g><path d="M 7.890625 -4.703125 C 7.890625 -4.109375 7.742188 -3.671875 7.453125 -3.390625 C 7.160156 -3.109375 6.835938 -2.96875 6.484375 -2.96875 L 3.0625 -2.96875 C 3.0625 -2.695312 3.21875 -2.46875 3.53125 -2.28125 C 3.851562 -2.101562 4.175781 -2.015625 4.5 -2.015625 C 5.050781 -2.015625 5.488281 -2.070312 5.8125 -2.1875 L 5.96875 -2.25 C 6.195312 -2.351562 6.390625 -2.40625 6.546875 -2.40625 C 6.847656 -2.40625 7.109375 -2.1875 7.328125 -1.75 C 7.453125 -1.5 7.515625 -1.28125 7.515625 -1.09375 C 7.515625 -0.238281 6.492188 0.1875 4.453125 0.1875 C 3.742188 0.1875 3.113281 0.0664062 2.5625 -0.171875 C 2.007812 -0.421875 1.578125 -0.75 1.265625 -1.15625 C 0.660156 -1.925781 0.359375 -2.796875 0.359375 -3.765625 C 0.359375 -4.972656 0.75 -5.9375 1.53125 -6.65625 C 2.3125 -7.382812 3.289062 -7.75 4.46875 -7.75 C 5.800781 -7.75 6.78125 -7.28125 7.40625 -6.34375 C 7.726562 -5.84375 7.890625 -5.296875 7.890625 -4.703125 Z M 4.859375 -4.28125 C 5.222656 -4.28125 5.40625 -4.429688 5.40625 -4.734375 C 5.40625 -4.960938 5.316406 -5.140625 5.140625 -5.265625 C 4.972656 -5.398438 4.734375 -5.46875 4.421875 -5.46875 C 4.117188 -5.46875 3.8125 -5.335938 3.5 -5.078125 C 3.195312 -4.828125 3.046875 -4.5625 3.046875 -4.28125 Z M 4.859375 -4.28125 "/></g></g></g></svg>